M48
; DRILL file {KiCad (5.1.2-1)-1} date Sunday, 21 July 2019 at 21:30:46
; FORMAT={-:-/ absolute / inch / decimal}
; #@! TF.CreationDate,2019-07-21T21:30:46+01:00
; #@! TF.GenerationSoftware,Kicad,Pcbnew,(5.1.2-1)-1
; #@! TF.FileFunction,Plated,1,2,PTH
FMAT,2
INCH
T1C0.0157
T2C0.0300
T3C0.0394
T4C0.0472
%
G90
G05
T1
X5.5193Y-3.4579
X5.5272Y-3.4118
X5.5433Y-3.372
X5.5917Y-2.8167
X5.7413Y-2.7827
X5.924Y-3.4858
X5.9787Y-3.5354
X5.9866Y-3.4527
T2
X6.3358Y-3.7807
X6.3358Y-3.8807
X6.3358Y-3.9807
X6.3358Y-4.0807
T3
X5.2047Y-2.7516
X5.2047Y-2.8516
X5.2047Y-2.9516
X5.3047Y-2.7516
X5.3047Y-2.8516
X5.3047Y-2.9516
X6.2628Y-2.755
X6.4744Y-2.9665
X5.0Y-2.7516
X5.0Y-2.8516
X5.0Y-2.9516
T4
X5.4343Y-4.2709
X5.5843Y-4.2709
X5.7343Y-4.2709
X5.8843Y-4.2709
T0
M30
