G04 #@! TF.GenerationSoftware,KiCad,Pcbnew,(5.1.2-1)-1*
G04 #@! TF.CreationDate,2019-07-21T21:30:41+01:00*
G04 #@! TF.ProjectId,nfc_reader_module,6e66635f-7265-4616-9465-725f6d6f6475,rev?*
G04 #@! TF.SameCoordinates,Original*
G04 #@! TF.FileFunction,Copper,L1,Top*
G04 #@! TF.FilePolarity,Positive*
%FSLAX46Y46*%
G04 Gerber Fmt 4.6, Leading zero omitted, Abs format (unit mm)*
G04 Created by KiCad (PCBNEW (5.1.2-1)-1) date 2019-07-21 21:30:41*
%MOMM*%
%LPD*%
G04 APERTURE LIST*
%ADD10O,1.800000X3.600000*%
%ADD11C,0.100000*%
%ADD12C,1.800000*%
%ADD13R,1.524000X1.524000*%
%ADD14C,1.524000*%
%ADD15C,2.000000*%
%ADD16C,0.875000*%
%ADD17R,1.700000X0.650000*%
%ADD18R,1.300000X3.400000*%
%ADD19O,1.700000X1.700000*%
%ADD20R,1.700000X1.700000*%
%ADD21R,1.500000X1.000000*%
%ADD22C,0.975000*%
%ADD23C,0.800000*%
%ADD24C,0.250000*%
%ADD25C,0.150000*%
G04 APERTURE END LIST*
D10*
X149460000Y-108480000D03*
X145650000Y-108480000D03*
X141840000Y-108480000D03*
D11*
G36*
X138704504Y-106681204D02*
G01*
X138728773Y-106684804D01*
X138752571Y-106690765D01*
X138775671Y-106699030D01*
X138797849Y-106709520D01*
X138818893Y-106722133D01*
X138838598Y-106736747D01*
X138856777Y-106753223D01*
X138873253Y-106771402D01*
X138887867Y-106791107D01*
X138900480Y-106812151D01*
X138910970Y-106834329D01*
X138919235Y-106857429D01*
X138925196Y-106881227D01*
X138928796Y-106905496D01*
X138930000Y-106930000D01*
X138930000Y-110030000D01*
X138928796Y-110054504D01*
X138925196Y-110078773D01*
X138919235Y-110102571D01*
X138910970Y-110125671D01*
X138900480Y-110147849D01*
X138887867Y-110168893D01*
X138873253Y-110188598D01*
X138856777Y-110206777D01*
X138838598Y-110223253D01*
X138818893Y-110237867D01*
X138797849Y-110250480D01*
X138775671Y-110260970D01*
X138752571Y-110269235D01*
X138728773Y-110275196D01*
X138704504Y-110278796D01*
X138680000Y-110280000D01*
X137380000Y-110280000D01*
X137355496Y-110278796D01*
X137331227Y-110275196D01*
X137307429Y-110269235D01*
X137284329Y-110260970D01*
X137262151Y-110250480D01*
X137241107Y-110237867D01*
X137221402Y-110223253D01*
X137203223Y-110206777D01*
X137186747Y-110188598D01*
X137172133Y-110168893D01*
X137159520Y-110147849D01*
X137149030Y-110125671D01*
X137140765Y-110102571D01*
X137134804Y-110078773D01*
X137131204Y-110054504D01*
X137130000Y-110030000D01*
X137130000Y-106930000D01*
X137131204Y-106905496D01*
X137134804Y-106881227D01*
X137140765Y-106857429D01*
X137149030Y-106834329D01*
X137159520Y-106812151D01*
X137172133Y-106791107D01*
X137186747Y-106771402D01*
X137203223Y-106753223D01*
X137221402Y-106736747D01*
X137241107Y-106722133D01*
X137262151Y-106709520D01*
X137284329Y-106699030D01*
X137307429Y-106690765D01*
X137331227Y-106684804D01*
X137355496Y-106681204D01*
X137380000Y-106680000D01*
X138680000Y-106680000D01*
X138704504Y-106681204D01*
X138704504Y-106681204D01*
G37*
D12*
X138030000Y-108480000D03*
D13*
X160930000Y-96030000D03*
D14*
X160930000Y-98570000D03*
X160930000Y-101110000D03*
X160930000Y-103650000D03*
D15*
X159075988Y-69975988D03*
X164450000Y-75350000D03*
D11*
G36*
X165864214Y-75350000D02*
G01*
X164450000Y-76764214D01*
X163035786Y-75350000D01*
X164450000Y-73935786D01*
X165864214Y-75350000D01*
X165864214Y-75350000D01*
G37*
G36*
X143457691Y-86008553D02*
G01*
X143478926Y-86011703D01*
X143499750Y-86016919D01*
X143519962Y-86024151D01*
X143539368Y-86033330D01*
X143557781Y-86044366D01*
X143575024Y-86057154D01*
X143590930Y-86071570D01*
X143605346Y-86087476D01*
X143618134Y-86104719D01*
X143629170Y-86123132D01*
X143638349Y-86142538D01*
X143645581Y-86162750D01*
X143650797Y-86183574D01*
X143653947Y-86204809D01*
X143655000Y-86226250D01*
X143655000Y-86663750D01*
X143653947Y-86685191D01*
X143650797Y-86706426D01*
X143645581Y-86727250D01*
X143638349Y-86747462D01*
X143629170Y-86766868D01*
X143618134Y-86785281D01*
X143605346Y-86802524D01*
X143590930Y-86818430D01*
X143575024Y-86832846D01*
X143557781Y-86845634D01*
X143539368Y-86856670D01*
X143519962Y-86865849D01*
X143499750Y-86873081D01*
X143478926Y-86878297D01*
X143457691Y-86881447D01*
X143436250Y-86882500D01*
X142923750Y-86882500D01*
X142902309Y-86881447D01*
X142881074Y-86878297D01*
X142860250Y-86873081D01*
X142840038Y-86865849D01*
X142820632Y-86856670D01*
X142802219Y-86845634D01*
X142784976Y-86832846D01*
X142769070Y-86818430D01*
X142754654Y-86802524D01*
X142741866Y-86785281D01*
X142730830Y-86766868D01*
X142721651Y-86747462D01*
X142714419Y-86727250D01*
X142709203Y-86706426D01*
X142706053Y-86685191D01*
X142705000Y-86663750D01*
X142705000Y-86226250D01*
X142706053Y-86204809D01*
X142709203Y-86183574D01*
X142714419Y-86162750D01*
X142721651Y-86142538D01*
X142730830Y-86123132D01*
X142741866Y-86104719D01*
X142754654Y-86087476D01*
X142769070Y-86071570D01*
X142784976Y-86057154D01*
X142802219Y-86044366D01*
X142820632Y-86033330D01*
X142840038Y-86024151D01*
X142860250Y-86016919D01*
X142881074Y-86011703D01*
X142902309Y-86008553D01*
X142923750Y-86007500D01*
X143436250Y-86007500D01*
X143457691Y-86008553D01*
X143457691Y-86008553D01*
G37*
D16*
X143180000Y-86445000D03*
D11*
G36*
X143457691Y-87583553D02*
G01*
X143478926Y-87586703D01*
X143499750Y-87591919D01*
X143519962Y-87599151D01*
X143539368Y-87608330D01*
X143557781Y-87619366D01*
X143575024Y-87632154D01*
X143590930Y-87646570D01*
X143605346Y-87662476D01*
X143618134Y-87679719D01*
X143629170Y-87698132D01*
X143638349Y-87717538D01*
X143645581Y-87737750D01*
X143650797Y-87758574D01*
X143653947Y-87779809D01*
X143655000Y-87801250D01*
X143655000Y-88238750D01*
X143653947Y-88260191D01*
X143650797Y-88281426D01*
X143645581Y-88302250D01*
X143638349Y-88322462D01*
X143629170Y-88341868D01*
X143618134Y-88360281D01*
X143605346Y-88377524D01*
X143590930Y-88393430D01*
X143575024Y-88407846D01*
X143557781Y-88420634D01*
X143539368Y-88431670D01*
X143519962Y-88440849D01*
X143499750Y-88448081D01*
X143478926Y-88453297D01*
X143457691Y-88456447D01*
X143436250Y-88457500D01*
X142923750Y-88457500D01*
X142902309Y-88456447D01*
X142881074Y-88453297D01*
X142860250Y-88448081D01*
X142840038Y-88440849D01*
X142820632Y-88431670D01*
X142802219Y-88420634D01*
X142784976Y-88407846D01*
X142769070Y-88393430D01*
X142754654Y-88377524D01*
X142741866Y-88360281D01*
X142730830Y-88341868D01*
X142721651Y-88322462D01*
X142714419Y-88302250D01*
X142709203Y-88281426D01*
X142706053Y-88260191D01*
X142705000Y-88238750D01*
X142705000Y-87801250D01*
X142706053Y-87779809D01*
X142709203Y-87758574D01*
X142714419Y-87737750D01*
X142721651Y-87717538D01*
X142730830Y-87698132D01*
X142741866Y-87679719D01*
X142754654Y-87662476D01*
X142769070Y-87646570D01*
X142784976Y-87632154D01*
X142802219Y-87619366D01*
X142820632Y-87608330D01*
X142840038Y-87599151D01*
X142860250Y-87591919D01*
X142881074Y-87586703D01*
X142902309Y-87583553D01*
X142923750Y-87582500D01*
X143436250Y-87582500D01*
X143457691Y-87583553D01*
X143457691Y-87583553D01*
G37*
D16*
X143180000Y-88020000D03*
D17*
X153920000Y-85995000D03*
X153920000Y-87265000D03*
X153920000Y-88535000D03*
X153920000Y-89805000D03*
X146620000Y-89805000D03*
X146620000Y-88535000D03*
X146620000Y-87265000D03*
X146620000Y-85995000D03*
D11*
G36*
X156155191Y-76981053D02*
G01*
X156176426Y-76984203D01*
X156197250Y-76989419D01*
X156217462Y-76996651D01*
X156236868Y-77005830D01*
X156255281Y-77016866D01*
X156272524Y-77029654D01*
X156288430Y-77044070D01*
X156302846Y-77059976D01*
X156315634Y-77077219D01*
X156326670Y-77095632D01*
X156335849Y-77115038D01*
X156343081Y-77135250D01*
X156348297Y-77156074D01*
X156351447Y-77177309D01*
X156352500Y-77198750D01*
X156352500Y-77636250D01*
X156351447Y-77657691D01*
X156348297Y-77678926D01*
X156343081Y-77699750D01*
X156335849Y-77719962D01*
X156326670Y-77739368D01*
X156315634Y-77757781D01*
X156302846Y-77775024D01*
X156288430Y-77790930D01*
X156272524Y-77805346D01*
X156255281Y-77818134D01*
X156236868Y-77829170D01*
X156217462Y-77838349D01*
X156197250Y-77845581D01*
X156176426Y-77850797D01*
X156155191Y-77853947D01*
X156133750Y-77855000D01*
X155621250Y-77855000D01*
X155599809Y-77853947D01*
X155578574Y-77850797D01*
X155557750Y-77845581D01*
X155537538Y-77838349D01*
X155518132Y-77829170D01*
X155499719Y-77818134D01*
X155482476Y-77805346D01*
X155466570Y-77790930D01*
X155452154Y-77775024D01*
X155439366Y-77757781D01*
X155428330Y-77739368D01*
X155419151Y-77719962D01*
X155411919Y-77699750D01*
X155406703Y-77678926D01*
X155403553Y-77657691D01*
X155402500Y-77636250D01*
X155402500Y-77198750D01*
X155403553Y-77177309D01*
X155406703Y-77156074D01*
X155411919Y-77135250D01*
X155419151Y-77115038D01*
X155428330Y-77095632D01*
X155439366Y-77077219D01*
X155452154Y-77059976D01*
X155466570Y-77044070D01*
X155482476Y-77029654D01*
X155499719Y-77016866D01*
X155518132Y-77005830D01*
X155537538Y-76996651D01*
X155557750Y-76989419D01*
X155578574Y-76984203D01*
X155599809Y-76981053D01*
X155621250Y-76980000D01*
X156133750Y-76980000D01*
X156155191Y-76981053D01*
X156155191Y-76981053D01*
G37*
D16*
X155877500Y-77417500D03*
D11*
G36*
X156155191Y-75406053D02*
G01*
X156176426Y-75409203D01*
X156197250Y-75414419D01*
X156217462Y-75421651D01*
X156236868Y-75430830D01*
X156255281Y-75441866D01*
X156272524Y-75454654D01*
X156288430Y-75469070D01*
X156302846Y-75484976D01*
X156315634Y-75502219D01*
X156326670Y-75520632D01*
X156335849Y-75540038D01*
X156343081Y-75560250D01*
X156348297Y-75581074D01*
X156351447Y-75602309D01*
X156352500Y-75623750D01*
X156352500Y-76061250D01*
X156351447Y-76082691D01*
X156348297Y-76103926D01*
X156343081Y-76124750D01*
X156335849Y-76144962D01*
X156326670Y-76164368D01*
X156315634Y-76182781D01*
X156302846Y-76200024D01*
X156288430Y-76215930D01*
X156272524Y-76230346D01*
X156255281Y-76243134D01*
X156236868Y-76254170D01*
X156217462Y-76263349D01*
X156197250Y-76270581D01*
X156176426Y-76275797D01*
X156155191Y-76278947D01*
X156133750Y-76280000D01*
X155621250Y-76280000D01*
X155599809Y-76278947D01*
X155578574Y-76275797D01*
X155557750Y-76270581D01*
X155537538Y-76263349D01*
X155518132Y-76254170D01*
X155499719Y-76243134D01*
X155482476Y-76230346D01*
X155466570Y-76215930D01*
X155452154Y-76200024D01*
X155439366Y-76182781D01*
X155428330Y-76164368D01*
X155419151Y-76144962D01*
X155411919Y-76124750D01*
X155406703Y-76103926D01*
X155403553Y-76082691D01*
X155402500Y-76061250D01*
X155402500Y-75623750D01*
X155403553Y-75602309D01*
X155406703Y-75581074D01*
X155411919Y-75560250D01*
X155419151Y-75540038D01*
X155428330Y-75520632D01*
X155439366Y-75502219D01*
X155452154Y-75484976D01*
X155466570Y-75469070D01*
X155482476Y-75454654D01*
X155499719Y-75441866D01*
X155518132Y-75430830D01*
X155537538Y-75421651D01*
X155557750Y-75414419D01*
X155578574Y-75409203D01*
X155599809Y-75406053D01*
X155621250Y-75405000D01*
X156133750Y-75405000D01*
X156155191Y-75406053D01*
X156155191Y-75406053D01*
G37*
D16*
X155877500Y-75842500D03*
D18*
X157390000Y-72680000D03*
X166090000Y-72680000D03*
D19*
X127000000Y-69890000D03*
X127000000Y-72430000D03*
D20*
X127000000Y-74970000D03*
D19*
X132200000Y-74970000D03*
X134740000Y-74970000D03*
X132200000Y-72430000D03*
X134740000Y-72430000D03*
X132200000Y-69890000D03*
D20*
X134740000Y-69890000D03*
D21*
X143510000Y-70410000D03*
X143510000Y-73610000D03*
X148410000Y-70410000D03*
X148410000Y-73610000D03*
D11*
G36*
X145355191Y-75216053D02*
G01*
X145376426Y-75219203D01*
X145397250Y-75224419D01*
X145417462Y-75231651D01*
X145436868Y-75240830D01*
X145455281Y-75251866D01*
X145472524Y-75264654D01*
X145488430Y-75279070D01*
X145502846Y-75294976D01*
X145515634Y-75312219D01*
X145526670Y-75330632D01*
X145535849Y-75350038D01*
X145543081Y-75370250D01*
X145548297Y-75391074D01*
X145551447Y-75412309D01*
X145552500Y-75433750D01*
X145552500Y-75946250D01*
X145551447Y-75967691D01*
X145548297Y-75988926D01*
X145543081Y-76009750D01*
X145535849Y-76029962D01*
X145526670Y-76049368D01*
X145515634Y-76067781D01*
X145502846Y-76085024D01*
X145488430Y-76100930D01*
X145472524Y-76115346D01*
X145455281Y-76128134D01*
X145436868Y-76139170D01*
X145417462Y-76148349D01*
X145397250Y-76155581D01*
X145376426Y-76160797D01*
X145355191Y-76163947D01*
X145333750Y-76165000D01*
X144896250Y-76165000D01*
X144874809Y-76163947D01*
X144853574Y-76160797D01*
X144832750Y-76155581D01*
X144812538Y-76148349D01*
X144793132Y-76139170D01*
X144774719Y-76128134D01*
X144757476Y-76115346D01*
X144741570Y-76100930D01*
X144727154Y-76085024D01*
X144714366Y-76067781D01*
X144703330Y-76049368D01*
X144694151Y-76029962D01*
X144686919Y-76009750D01*
X144681703Y-75988926D01*
X144678553Y-75967691D01*
X144677500Y-75946250D01*
X144677500Y-75433750D01*
X144678553Y-75412309D01*
X144681703Y-75391074D01*
X144686919Y-75370250D01*
X144694151Y-75350038D01*
X144703330Y-75330632D01*
X144714366Y-75312219D01*
X144727154Y-75294976D01*
X144741570Y-75279070D01*
X144757476Y-75264654D01*
X144774719Y-75251866D01*
X144793132Y-75240830D01*
X144812538Y-75231651D01*
X144832750Y-75224419D01*
X144853574Y-75219203D01*
X144874809Y-75216053D01*
X144896250Y-75215000D01*
X145333750Y-75215000D01*
X145355191Y-75216053D01*
X145355191Y-75216053D01*
G37*
D16*
X145115000Y-75690000D03*
D11*
G36*
X146930191Y-75216053D02*
G01*
X146951426Y-75219203D01*
X146972250Y-75224419D01*
X146992462Y-75231651D01*
X147011868Y-75240830D01*
X147030281Y-75251866D01*
X147047524Y-75264654D01*
X147063430Y-75279070D01*
X147077846Y-75294976D01*
X147090634Y-75312219D01*
X147101670Y-75330632D01*
X147110849Y-75350038D01*
X147118081Y-75370250D01*
X147123297Y-75391074D01*
X147126447Y-75412309D01*
X147127500Y-75433750D01*
X147127500Y-75946250D01*
X147126447Y-75967691D01*
X147123297Y-75988926D01*
X147118081Y-76009750D01*
X147110849Y-76029962D01*
X147101670Y-76049368D01*
X147090634Y-76067781D01*
X147077846Y-76085024D01*
X147063430Y-76100930D01*
X147047524Y-76115346D01*
X147030281Y-76128134D01*
X147011868Y-76139170D01*
X146992462Y-76148349D01*
X146972250Y-76155581D01*
X146951426Y-76160797D01*
X146930191Y-76163947D01*
X146908750Y-76165000D01*
X146471250Y-76165000D01*
X146449809Y-76163947D01*
X146428574Y-76160797D01*
X146407750Y-76155581D01*
X146387538Y-76148349D01*
X146368132Y-76139170D01*
X146349719Y-76128134D01*
X146332476Y-76115346D01*
X146316570Y-76100930D01*
X146302154Y-76085024D01*
X146289366Y-76067781D01*
X146278330Y-76049368D01*
X146269151Y-76029962D01*
X146261919Y-76009750D01*
X146256703Y-75988926D01*
X146253553Y-75967691D01*
X146252500Y-75946250D01*
X146252500Y-75433750D01*
X146253553Y-75412309D01*
X146256703Y-75391074D01*
X146261919Y-75370250D01*
X146269151Y-75350038D01*
X146278330Y-75330632D01*
X146289366Y-75312219D01*
X146302154Y-75294976D01*
X146316570Y-75279070D01*
X146332476Y-75264654D01*
X146349719Y-75251866D01*
X146368132Y-75240830D01*
X146387538Y-75231651D01*
X146407750Y-75224419D01*
X146428574Y-75219203D01*
X146449809Y-75216053D01*
X146471250Y-75215000D01*
X146908750Y-75215000D01*
X146930191Y-75216053D01*
X146930191Y-75216053D01*
G37*
D16*
X146690000Y-75690000D03*
D11*
G36*
X157457691Y-91278553D02*
G01*
X157478926Y-91281703D01*
X157499750Y-91286919D01*
X157519962Y-91294151D01*
X157539368Y-91303330D01*
X157557781Y-91314366D01*
X157575024Y-91327154D01*
X157590930Y-91341570D01*
X157605346Y-91357476D01*
X157618134Y-91374719D01*
X157629170Y-91393132D01*
X157638349Y-91412538D01*
X157645581Y-91432750D01*
X157650797Y-91453574D01*
X157653947Y-91474809D01*
X157655000Y-91496250D01*
X157655000Y-91933750D01*
X157653947Y-91955191D01*
X157650797Y-91976426D01*
X157645581Y-91997250D01*
X157638349Y-92017462D01*
X157629170Y-92036868D01*
X157618134Y-92055281D01*
X157605346Y-92072524D01*
X157590930Y-92088430D01*
X157575024Y-92102846D01*
X157557781Y-92115634D01*
X157539368Y-92126670D01*
X157519962Y-92135849D01*
X157499750Y-92143081D01*
X157478926Y-92148297D01*
X157457691Y-92151447D01*
X157436250Y-92152500D01*
X156923750Y-92152500D01*
X156902309Y-92151447D01*
X156881074Y-92148297D01*
X156860250Y-92143081D01*
X156840038Y-92135849D01*
X156820632Y-92126670D01*
X156802219Y-92115634D01*
X156784976Y-92102846D01*
X156769070Y-92088430D01*
X156754654Y-92072524D01*
X156741866Y-92055281D01*
X156730830Y-92036868D01*
X156721651Y-92017462D01*
X156714419Y-91997250D01*
X156709203Y-91976426D01*
X156706053Y-91955191D01*
X156705000Y-91933750D01*
X156705000Y-91496250D01*
X156706053Y-91474809D01*
X156709203Y-91453574D01*
X156714419Y-91432750D01*
X156721651Y-91412538D01*
X156730830Y-91393132D01*
X156741866Y-91374719D01*
X156754654Y-91357476D01*
X156769070Y-91341570D01*
X156784976Y-91327154D01*
X156802219Y-91314366D01*
X156820632Y-91303330D01*
X156840038Y-91294151D01*
X156860250Y-91286919D01*
X156881074Y-91281703D01*
X156902309Y-91278553D01*
X156923750Y-91277500D01*
X157436250Y-91277500D01*
X157457691Y-91278553D01*
X157457691Y-91278553D01*
G37*
D16*
X157180000Y-91715000D03*
D11*
G36*
X157457691Y-92853553D02*
G01*
X157478926Y-92856703D01*
X157499750Y-92861919D01*
X157519962Y-92869151D01*
X157539368Y-92878330D01*
X157557781Y-92889366D01*
X157575024Y-92902154D01*
X157590930Y-92916570D01*
X157605346Y-92932476D01*
X157618134Y-92949719D01*
X157629170Y-92968132D01*
X157638349Y-92987538D01*
X157645581Y-93007750D01*
X157650797Y-93028574D01*
X157653947Y-93049809D01*
X157655000Y-93071250D01*
X157655000Y-93508750D01*
X157653947Y-93530191D01*
X157650797Y-93551426D01*
X157645581Y-93572250D01*
X157638349Y-93592462D01*
X157629170Y-93611868D01*
X157618134Y-93630281D01*
X157605346Y-93647524D01*
X157590930Y-93663430D01*
X157575024Y-93677846D01*
X157557781Y-93690634D01*
X157539368Y-93701670D01*
X157519962Y-93710849D01*
X157499750Y-93718081D01*
X157478926Y-93723297D01*
X157457691Y-93726447D01*
X157436250Y-93727500D01*
X156923750Y-93727500D01*
X156902309Y-93726447D01*
X156881074Y-93723297D01*
X156860250Y-93718081D01*
X156840038Y-93710849D01*
X156820632Y-93701670D01*
X156802219Y-93690634D01*
X156784976Y-93677846D01*
X156769070Y-93663430D01*
X156754654Y-93647524D01*
X156741866Y-93630281D01*
X156730830Y-93611868D01*
X156721651Y-93592462D01*
X156714419Y-93572250D01*
X156709203Y-93551426D01*
X156706053Y-93530191D01*
X156705000Y-93508750D01*
X156705000Y-93071250D01*
X156706053Y-93049809D01*
X156709203Y-93028574D01*
X156714419Y-93007750D01*
X156721651Y-92987538D01*
X156730830Y-92968132D01*
X156741866Y-92949719D01*
X156754654Y-92932476D01*
X156769070Y-92916570D01*
X156784976Y-92902154D01*
X156802219Y-92889366D01*
X156820632Y-92878330D01*
X156840038Y-92869151D01*
X156860250Y-92861919D01*
X156881074Y-92856703D01*
X156902309Y-92853553D01*
X156923750Y-92852500D01*
X157436250Y-92852500D01*
X157457691Y-92853553D01*
X157457691Y-92853553D01*
G37*
D16*
X157180000Y-93290000D03*
D11*
G36*
X139260142Y-111731174D02*
G01*
X139283803Y-111734684D01*
X139307007Y-111740496D01*
X139329529Y-111748554D01*
X139351153Y-111758782D01*
X139371670Y-111771079D01*
X139390883Y-111785329D01*
X139408607Y-111801393D01*
X139424671Y-111819117D01*
X139438921Y-111838330D01*
X139451218Y-111858847D01*
X139461446Y-111880471D01*
X139469504Y-111902993D01*
X139475316Y-111926197D01*
X139478826Y-111949858D01*
X139480000Y-111973750D01*
X139480000Y-112886250D01*
X139478826Y-112910142D01*
X139475316Y-112933803D01*
X139469504Y-112957007D01*
X139461446Y-112979529D01*
X139451218Y-113001153D01*
X139438921Y-113021670D01*
X139424671Y-113040883D01*
X139408607Y-113058607D01*
X139390883Y-113074671D01*
X139371670Y-113088921D01*
X139351153Y-113101218D01*
X139329529Y-113111446D01*
X139307007Y-113119504D01*
X139283803Y-113125316D01*
X139260142Y-113128826D01*
X139236250Y-113130000D01*
X138748750Y-113130000D01*
X138724858Y-113128826D01*
X138701197Y-113125316D01*
X138677993Y-113119504D01*
X138655471Y-113111446D01*
X138633847Y-113101218D01*
X138613330Y-113088921D01*
X138594117Y-113074671D01*
X138576393Y-113058607D01*
X138560329Y-113040883D01*
X138546079Y-113021670D01*
X138533782Y-113001153D01*
X138523554Y-112979529D01*
X138515496Y-112957007D01*
X138509684Y-112933803D01*
X138506174Y-112910142D01*
X138505000Y-112886250D01*
X138505000Y-111973750D01*
X138506174Y-111949858D01*
X138509684Y-111926197D01*
X138515496Y-111902993D01*
X138523554Y-111880471D01*
X138533782Y-111858847D01*
X138546079Y-111838330D01*
X138560329Y-111819117D01*
X138576393Y-111801393D01*
X138594117Y-111785329D01*
X138613330Y-111771079D01*
X138633847Y-111758782D01*
X138655471Y-111748554D01*
X138677993Y-111740496D01*
X138701197Y-111734684D01*
X138724858Y-111731174D01*
X138748750Y-111730000D01*
X139236250Y-111730000D01*
X139260142Y-111731174D01*
X139260142Y-111731174D01*
G37*
D22*
X138992500Y-112430000D03*
D11*
G36*
X141135142Y-111731174D02*
G01*
X141158803Y-111734684D01*
X141182007Y-111740496D01*
X141204529Y-111748554D01*
X141226153Y-111758782D01*
X141246670Y-111771079D01*
X141265883Y-111785329D01*
X141283607Y-111801393D01*
X141299671Y-111819117D01*
X141313921Y-111838330D01*
X141326218Y-111858847D01*
X141336446Y-111880471D01*
X141344504Y-111902993D01*
X141350316Y-111926197D01*
X141353826Y-111949858D01*
X141355000Y-111973750D01*
X141355000Y-112886250D01*
X141353826Y-112910142D01*
X141350316Y-112933803D01*
X141344504Y-112957007D01*
X141336446Y-112979529D01*
X141326218Y-113001153D01*
X141313921Y-113021670D01*
X141299671Y-113040883D01*
X141283607Y-113058607D01*
X141265883Y-113074671D01*
X141246670Y-113088921D01*
X141226153Y-113101218D01*
X141204529Y-113111446D01*
X141182007Y-113119504D01*
X141158803Y-113125316D01*
X141135142Y-113128826D01*
X141111250Y-113130000D01*
X140623750Y-113130000D01*
X140599858Y-113128826D01*
X140576197Y-113125316D01*
X140552993Y-113119504D01*
X140530471Y-113111446D01*
X140508847Y-113101218D01*
X140488330Y-113088921D01*
X140469117Y-113074671D01*
X140451393Y-113058607D01*
X140435329Y-113040883D01*
X140421079Y-113021670D01*
X140408782Y-113001153D01*
X140398554Y-112979529D01*
X140390496Y-112957007D01*
X140384684Y-112933803D01*
X140381174Y-112910142D01*
X140380000Y-112886250D01*
X140380000Y-111973750D01*
X140381174Y-111949858D01*
X140384684Y-111926197D01*
X140390496Y-111902993D01*
X140398554Y-111880471D01*
X140408782Y-111858847D01*
X140421079Y-111838330D01*
X140435329Y-111819117D01*
X140451393Y-111801393D01*
X140469117Y-111785329D01*
X140488330Y-111771079D01*
X140508847Y-111758782D01*
X140530471Y-111748554D01*
X140552993Y-111740496D01*
X140576197Y-111734684D01*
X140599858Y-111731174D01*
X140623750Y-111730000D01*
X141111250Y-111730000D01*
X141135142Y-111731174D01*
X141135142Y-111731174D01*
G37*
D22*
X140867500Y-112430000D03*
D23*
X145830000Y-70680000D03*
X142030000Y-71545010D03*
X140190000Y-87830000D03*
X151860000Y-89800000D03*
X140390000Y-86660000D03*
X152059800Y-87699800D03*
X140800000Y-85650000D03*
X150470000Y-88539998D03*
D24*
X145980000Y-70680000D02*
X145830000Y-70680000D01*
X157390000Y-71661976D02*
X157390000Y-72680000D01*
X159075988Y-69975988D02*
X157390000Y-71661976D01*
X156605000Y-93290000D02*
X157180000Y-93290000D01*
X146620000Y-89805000D02*
X146620000Y-90380000D01*
X146620000Y-90380000D02*
X149530000Y-93290000D01*
X149530000Y-93290000D02*
X156605000Y-93290000D01*
X159102000Y-93290000D02*
X160930000Y-95118000D01*
X160930000Y-95118000D02*
X160930000Y-96030000D01*
X157180000Y-93290000D02*
X159102000Y-93290000D01*
X138030000Y-111467500D02*
X138992500Y-112430000D01*
X138030000Y-108480000D02*
X138030000Y-111467500D01*
X150480000Y-96030000D02*
X160930000Y-96030000D01*
X138030000Y-108480000D02*
X150480000Y-96030000D01*
X148410000Y-73260000D02*
X148410000Y-73610000D01*
X145830000Y-70680000D02*
X148410000Y-73260000D01*
X146690000Y-75115000D02*
X146690000Y-75690000D01*
X146690000Y-75080000D02*
X146690000Y-75115000D01*
X148160000Y-73610000D02*
X146690000Y-75080000D01*
X148410000Y-73610000D02*
X148160000Y-73610000D01*
X127000000Y-69890000D02*
X132200000Y-69890000D01*
X133620000Y-68470000D02*
X132200000Y-69890000D01*
X141370000Y-68470000D02*
X133620000Y-68470000D01*
X142030000Y-69130000D02*
X141370000Y-68470000D01*
X142030000Y-71070000D02*
X142030000Y-69130000D01*
X142030000Y-71070000D02*
X142030000Y-71545010D01*
X157180000Y-88730000D02*
X157180000Y-91177500D01*
X157180000Y-91177500D02*
X157180000Y-91715000D01*
X154445000Y-85995000D02*
X157180000Y-88730000D01*
X153920000Y-85995000D02*
X154445000Y-85995000D01*
X161691999Y-97808001D02*
X160930000Y-98570000D01*
X158724002Y-91715000D02*
X162017001Y-95007999D01*
X162017001Y-97482999D02*
X161691999Y-97808001D01*
X162017001Y-95007999D02*
X162017001Y-97482999D01*
X157180000Y-91715000D02*
X158724002Y-91715000D01*
D25*
X152405000Y-85995000D02*
X153920000Y-85995000D01*
X150710000Y-87690000D02*
X152405000Y-85995000D01*
X149170000Y-87690000D02*
X150710000Y-87690000D01*
X144340000Y-89180000D02*
X147680000Y-89180000D01*
X147680000Y-89180000D02*
X149170000Y-87690000D01*
X143180000Y-88020000D02*
X144340000Y-89180000D01*
D24*
X141840000Y-111457500D02*
X140867500Y-112430000D01*
X141840000Y-108480000D02*
X141840000Y-111457500D01*
X159852370Y-98570000D02*
X160930000Y-98570000D01*
X150850000Y-98570000D02*
X159852370Y-98570000D01*
X141840000Y-107580000D02*
X150850000Y-98570000D01*
X141840000Y-108480000D02*
X141840000Y-107580000D01*
X141630001Y-71945009D02*
X141630001Y-73565003D01*
X144577500Y-75690000D02*
X145115000Y-75690000D01*
X143754998Y-75690000D02*
X144577500Y-75690000D01*
X141630001Y-73565003D02*
X143754998Y-75690000D01*
X142030000Y-71545010D02*
X141630001Y-71945009D01*
X143165010Y-70410000D02*
X142030000Y-71545010D01*
X143510000Y-70410000D02*
X143165010Y-70410000D01*
D25*
X125840000Y-69330000D02*
X127140000Y-68030000D01*
X125840000Y-71270000D02*
X125840000Y-69330000D01*
X127000000Y-72430000D02*
X125840000Y-71270000D01*
X143510000Y-72960000D02*
X143510000Y-73610000D01*
X144535001Y-68805001D02*
X144535001Y-71934999D01*
X144535001Y-71934999D02*
X143510000Y-72960000D01*
X143760000Y-68030000D02*
X144535001Y-68805001D01*
X127140000Y-68030000D02*
X143760000Y-68030000D01*
X145620000Y-88535000D02*
X145450000Y-88365000D01*
X145584998Y-86630000D02*
X149910000Y-86630000D01*
X149910000Y-86630000D02*
X150890000Y-85650000D01*
X145450000Y-86764998D02*
X145584998Y-86630000D01*
X145450000Y-88365000D02*
X145450000Y-86764998D01*
X146620000Y-88535000D02*
X145620000Y-88535000D01*
X150890000Y-71990000D02*
X150890000Y-85650000D01*
X149310000Y-70410000D02*
X150890000Y-71990000D01*
X148410000Y-70410000D02*
X149310000Y-70410000D01*
X143630000Y-85995000D02*
X143180000Y-86445000D01*
X146620000Y-85995000D02*
X143630000Y-85995000D01*
X142718388Y-86906612D02*
X143180000Y-86445000D01*
X139640000Y-88710000D02*
X140915000Y-88710000D01*
X138810000Y-87880000D02*
X139640000Y-88710000D01*
X134740000Y-74970000D02*
X136870000Y-74970000D01*
X138810000Y-76910000D02*
X138810000Y-87880000D01*
X140915000Y-88710000D02*
X142718388Y-86906612D01*
X136870000Y-74970000D02*
X138810000Y-76910000D01*
X139259990Y-76779990D02*
X139259990Y-86519990D01*
X136180000Y-73700000D02*
X139259990Y-76779990D01*
X133470000Y-73700000D02*
X136180000Y-73700000D01*
X132200000Y-72430000D02*
X133470000Y-73700000D01*
X139259990Y-86899990D02*
X140190000Y-87830000D01*
X139259990Y-86519990D02*
X139259990Y-86899990D01*
X153915000Y-89800000D02*
X153920000Y-89805000D01*
X151860000Y-89800000D02*
X153915000Y-89800000D01*
X134740000Y-72430000D02*
X135550000Y-72430000D01*
X139700000Y-76580000D02*
X139700000Y-85060000D01*
X135550000Y-72430000D02*
X139700000Y-76580000D01*
X139700000Y-85970000D02*
X140390000Y-86660000D01*
X139700000Y-85060000D02*
X139700000Y-85970000D01*
X152494600Y-87265000D02*
X152459799Y-87299801D01*
X152459799Y-87299801D02*
X152059800Y-87699800D01*
X153920000Y-87265000D02*
X152494600Y-87265000D01*
X140160000Y-74310000D02*
X140160000Y-85000000D01*
X135740000Y-69890000D02*
X140160000Y-74310000D01*
X134740000Y-69890000D02*
X135740000Y-69890000D01*
X140160000Y-85010000D02*
X140800000Y-85650000D01*
X140160000Y-85000000D02*
X140160000Y-85010000D01*
X153920000Y-88535000D02*
X150474998Y-88535000D01*
X150474998Y-88535000D02*
X150470000Y-88539998D01*
X166090000Y-73710000D02*
X166090000Y-72680000D01*
X164450000Y-75350000D02*
X166090000Y-73710000D01*
X163957500Y-75842500D02*
X164450000Y-75350000D01*
X155877500Y-75842500D02*
X163957500Y-75842500D01*
X154925001Y-85394999D02*
X155877500Y-84442500D01*
X155877500Y-84442500D02*
X155877500Y-77417500D01*
X150165000Y-87265000D02*
X152035001Y-85394999D01*
X152035001Y-85394999D02*
X154925001Y-85394999D01*
X146620000Y-87265000D02*
X150165000Y-87265000D01*
M02*
