G04 #@! TF.GenerationSoftware,KiCad,Pcbnew,(5.1.2-1)-1*
G04 #@! TF.CreationDate,2019-07-21T21:30:41+01:00*
G04 #@! TF.ProjectId,nfc_reader_module,6e66635f-7265-4616-9465-725f6d6f6475,rev?*
G04 #@! TF.SameCoordinates,Original*
G04 #@! TF.FileFunction,Copper,L2,Bot*
G04 #@! TF.FilePolarity,Positive*
%FSLAX46Y46*%
G04 Gerber Fmt 4.6, Leading zero omitted, Abs format (unit mm)*
G04 Created by KiCad (PCBNEW (5.1.2-1)-1) date 2019-07-21 21:30:41*
%MOMM*%
%LPD*%
G04 APERTURE LIST*
%ADD10O,1.800000X3.600000*%
%ADD11C,0.100000*%
%ADD12C,1.800000*%
%ADD13R,1.524000X1.524000*%
%ADD14C,1.524000*%
%ADD15C,2.000000*%
%ADD16O,1.700000X1.700000*%
%ADD17R,1.700000X1.700000*%
%ADD18C,0.800000*%
%ADD19C,0.250000*%
%ADD20C,0.150000*%
G04 APERTURE END LIST*
D10*
X149460000Y-108480000D03*
X145650000Y-108480000D03*
X141840000Y-108480000D03*
D11*
G36*
X138704504Y-106681204D02*
G01*
X138728773Y-106684804D01*
X138752571Y-106690765D01*
X138775671Y-106699030D01*
X138797849Y-106709520D01*
X138818893Y-106722133D01*
X138838598Y-106736747D01*
X138856777Y-106753223D01*
X138873253Y-106771402D01*
X138887867Y-106791107D01*
X138900480Y-106812151D01*
X138910970Y-106834329D01*
X138919235Y-106857429D01*
X138925196Y-106881227D01*
X138928796Y-106905496D01*
X138930000Y-106930000D01*
X138930000Y-110030000D01*
X138928796Y-110054504D01*
X138925196Y-110078773D01*
X138919235Y-110102571D01*
X138910970Y-110125671D01*
X138900480Y-110147849D01*
X138887867Y-110168893D01*
X138873253Y-110188598D01*
X138856777Y-110206777D01*
X138838598Y-110223253D01*
X138818893Y-110237867D01*
X138797849Y-110250480D01*
X138775671Y-110260970D01*
X138752571Y-110269235D01*
X138728773Y-110275196D01*
X138704504Y-110278796D01*
X138680000Y-110280000D01*
X137380000Y-110280000D01*
X137355496Y-110278796D01*
X137331227Y-110275196D01*
X137307429Y-110269235D01*
X137284329Y-110260970D01*
X137262151Y-110250480D01*
X137241107Y-110237867D01*
X137221402Y-110223253D01*
X137203223Y-110206777D01*
X137186747Y-110188598D01*
X137172133Y-110168893D01*
X137159520Y-110147849D01*
X137149030Y-110125671D01*
X137140765Y-110102571D01*
X137134804Y-110078773D01*
X137131204Y-110054504D01*
X137130000Y-110030000D01*
X137130000Y-106930000D01*
X137131204Y-106905496D01*
X137134804Y-106881227D01*
X137140765Y-106857429D01*
X137149030Y-106834329D01*
X137159520Y-106812151D01*
X137172133Y-106791107D01*
X137186747Y-106771402D01*
X137203223Y-106753223D01*
X137221402Y-106736747D01*
X137241107Y-106722133D01*
X137262151Y-106709520D01*
X137284329Y-106699030D01*
X137307429Y-106690765D01*
X137331227Y-106684804D01*
X137355496Y-106681204D01*
X137380000Y-106680000D01*
X138680000Y-106680000D01*
X138704504Y-106681204D01*
X138704504Y-106681204D01*
G37*
D12*
X138030000Y-108480000D03*
D13*
X160930000Y-96030000D03*
D14*
X160930000Y-98570000D03*
X160930000Y-101110000D03*
X160930000Y-103650000D03*
D15*
X159075988Y-69975988D03*
X164450000Y-75350000D03*
D11*
G36*
X165864214Y-75350000D02*
G01*
X164450000Y-76764214D01*
X163035786Y-75350000D01*
X164450000Y-73935786D01*
X165864214Y-75350000D01*
X165864214Y-75350000D01*
G37*
D16*
X127000000Y-69890000D03*
X127000000Y-72430000D03*
D17*
X127000000Y-74970000D03*
D16*
X132200000Y-74970000D03*
X134740000Y-74970000D03*
X132200000Y-72430000D03*
X134740000Y-72430000D03*
X132200000Y-69890000D03*
D17*
X134740000Y-69890000D03*
D18*
X145830000Y-70680000D03*
X142030000Y-71545010D03*
X140190000Y-87830000D03*
X151860000Y-89800000D03*
X140390000Y-86660000D03*
X152059800Y-87699800D03*
X140800000Y-85650000D03*
X150470000Y-88539998D03*
D19*
X128100000Y-74970000D02*
X132200000Y-74970000D01*
X127000000Y-74970000D02*
X128100000Y-74970000D01*
X134880000Y-77650000D02*
X132200000Y-74970000D01*
X134880000Y-77416998D02*
X141616998Y-70680000D01*
X141616998Y-70680000D02*
X145830000Y-70680000D01*
X134880000Y-77650000D02*
X134880000Y-77416998D01*
X158371976Y-70680000D02*
X159075988Y-69975988D01*
X145830000Y-70680000D02*
X158371976Y-70680000D01*
X134880000Y-105330000D02*
X138030000Y-108480000D01*
X134880000Y-77650000D02*
X134880000Y-105330000D01*
X142030000Y-71545010D02*
X135800000Y-77775010D01*
X141840000Y-107580000D02*
X141840000Y-108480000D01*
X135800000Y-101540000D02*
X141840000Y-107580000D01*
X135800000Y-77775010D02*
X135800000Y-101540000D01*
D20*
X142160000Y-89800000D02*
X151860000Y-89800000D01*
X140190000Y-87830000D02*
X142160000Y-89800000D01*
X151860000Y-92040000D02*
X160930000Y-101110000D01*
X151860000Y-89800000D02*
X151860000Y-92040000D01*
X152120000Y-101110000D02*
X145650000Y-107580000D01*
X145650000Y-107580000D02*
X145650000Y-108480000D01*
X160930000Y-101110000D02*
X152120000Y-101110000D01*
X151110286Y-89214999D02*
X152059800Y-88265485D01*
X152059800Y-88265485D02*
X152059800Y-87699800D01*
X140390000Y-86660000D02*
X142944999Y-89214999D01*
X161410000Y-99810000D02*
X160561238Y-99810000D01*
X162070000Y-100470000D02*
X161410000Y-99810000D01*
X160930000Y-103650000D02*
X162070000Y-102510000D01*
X142944999Y-89214999D02*
X151110286Y-89214999D01*
X162070000Y-102510000D02*
X162070000Y-100470000D01*
X152585001Y-88225001D02*
X152459799Y-88099799D01*
X152585001Y-91833763D02*
X152585001Y-88225001D01*
X152459799Y-88099799D02*
X152059800Y-87699800D01*
X160561238Y-99810000D02*
X152585001Y-91833763D01*
X149460000Y-107580000D02*
X149460000Y-108480000D01*
X153390000Y-103650000D02*
X149460000Y-107580000D01*
X160930000Y-103650000D02*
X153390000Y-103650000D01*
X140800000Y-85650000D02*
X143689998Y-88539998D01*
X143689998Y-88539998D02*
X149904315Y-88539998D01*
X149904315Y-88539998D02*
X150470000Y-88539998D01*
M02*
