G04 #@! TF.GenerationSoftware,KiCad,Pcbnew,(5.1.2-1)-1*
G04 #@! TF.CreationDate,2019-07-21T21:30:42+01:00*
G04 #@! TF.ProjectId,nfc_reader_module,6e66635f-7265-4616-9465-725f6d6f6475,rev?*
G04 #@! TF.SameCoordinates,Original*
G04 #@! TF.FileFunction,Soldermask,Top*
G04 #@! TF.FilePolarity,Negative*
%FSLAX46Y46*%
G04 Gerber Fmt 4.6, Leading zero omitted, Abs format (unit mm)*
G04 Created by KiCad (PCBNEW (5.1.2-1)-1) date 2019-07-21 21:30:42*
%MOMM*%
%LPD*%
G04 APERTURE LIST*
%ADD10C,0.100000*%
G04 APERTURE END LIST*
D10*
G36*
X141239468Y-111683565D02*
G01*
X141278138Y-111695296D01*
X141313777Y-111714346D01*
X141345017Y-111739983D01*
X141370654Y-111771223D01*
X141389704Y-111806862D01*
X141401435Y-111845532D01*
X141406000Y-111891888D01*
X141406000Y-112968112D01*
X141401435Y-113014468D01*
X141389704Y-113053138D01*
X141370654Y-113088777D01*
X141345017Y-113120017D01*
X141313777Y-113145654D01*
X141278138Y-113164704D01*
X141239468Y-113176435D01*
X141193112Y-113181000D01*
X140541888Y-113181000D01*
X140495532Y-113176435D01*
X140456862Y-113164704D01*
X140421223Y-113145654D01*
X140389983Y-113120017D01*
X140364346Y-113088777D01*
X140345296Y-113053138D01*
X140333565Y-113014468D01*
X140329000Y-112968112D01*
X140329000Y-111891888D01*
X140333565Y-111845532D01*
X140345296Y-111806862D01*
X140364346Y-111771223D01*
X140389983Y-111739983D01*
X140421223Y-111714346D01*
X140456862Y-111695296D01*
X140495532Y-111683565D01*
X140541888Y-111679000D01*
X141193112Y-111679000D01*
X141239468Y-111683565D01*
X141239468Y-111683565D01*
G37*
G36*
X139364468Y-111683565D02*
G01*
X139403138Y-111695296D01*
X139438777Y-111714346D01*
X139470017Y-111739983D01*
X139495654Y-111771223D01*
X139514704Y-111806862D01*
X139526435Y-111845532D01*
X139531000Y-111891888D01*
X139531000Y-112968112D01*
X139526435Y-113014468D01*
X139514704Y-113053138D01*
X139495654Y-113088777D01*
X139470017Y-113120017D01*
X139438777Y-113145654D01*
X139403138Y-113164704D01*
X139364468Y-113176435D01*
X139318112Y-113181000D01*
X138666888Y-113181000D01*
X138620532Y-113176435D01*
X138581862Y-113164704D01*
X138546223Y-113145654D01*
X138514983Y-113120017D01*
X138489346Y-113088777D01*
X138470296Y-113053138D01*
X138458565Y-113014468D01*
X138454000Y-112968112D01*
X138454000Y-111891888D01*
X138458565Y-111845532D01*
X138470296Y-111806862D01*
X138489346Y-111771223D01*
X138514983Y-111739983D01*
X138546223Y-111714346D01*
X138581862Y-111695296D01*
X138620532Y-111683565D01*
X138666888Y-111679000D01*
X139318112Y-111679000D01*
X139364468Y-111683565D01*
X139364468Y-111683565D01*
G37*
G36*
X149646424Y-106642760D02*
G01*
X149646427Y-106642761D01*
X149646428Y-106642761D01*
X149825692Y-106697140D01*
X149825695Y-106697142D01*
X149825696Y-106697142D01*
X149990903Y-106785446D01*
X150135712Y-106904288D01*
X150254554Y-107049097D01*
X150342858Y-107214303D01*
X150342860Y-107214307D01*
X150342860Y-107214308D01*
X150397240Y-107393575D01*
X150411000Y-107533282D01*
X150411000Y-109426718D01*
X150397240Y-109566425D01*
X150397239Y-109566428D01*
X150397239Y-109566429D01*
X150342860Y-109745693D01*
X150342858Y-109745696D01*
X150342858Y-109745697D01*
X150254554Y-109910903D01*
X150135712Y-110055712D01*
X149990903Y-110174554D01*
X149843425Y-110253382D01*
X149825693Y-110262860D01*
X149646429Y-110317239D01*
X149646428Y-110317239D01*
X149646425Y-110317240D01*
X149460000Y-110335601D01*
X149273576Y-110317240D01*
X149273573Y-110317239D01*
X149273572Y-110317239D01*
X149094308Y-110262860D01*
X149076576Y-110253382D01*
X148929098Y-110174554D01*
X148784289Y-110055712D01*
X148665447Y-109910903D01*
X148577143Y-109745697D01*
X148577143Y-109745696D01*
X148577141Y-109745693D01*
X148522762Y-109566429D01*
X148522762Y-109566428D01*
X148522761Y-109566425D01*
X148509000Y-109426717D01*
X148509000Y-107533283D01*
X148522760Y-107393576D01*
X148522761Y-107393572D01*
X148577140Y-107214308D01*
X148577143Y-107214303D01*
X148665446Y-107049097D01*
X148784288Y-106904288D01*
X148929097Y-106785446D01*
X149094303Y-106697142D01*
X149094304Y-106697142D01*
X149094307Y-106697140D01*
X149273571Y-106642761D01*
X149273572Y-106642761D01*
X149273575Y-106642760D01*
X149460000Y-106624399D01*
X149646424Y-106642760D01*
X149646424Y-106642760D01*
G37*
G36*
X142026424Y-106642760D02*
G01*
X142026427Y-106642761D01*
X142026428Y-106642761D01*
X142205692Y-106697140D01*
X142205695Y-106697142D01*
X142205696Y-106697142D01*
X142370903Y-106785446D01*
X142515712Y-106904288D01*
X142634554Y-107049097D01*
X142722858Y-107214303D01*
X142722860Y-107214307D01*
X142722860Y-107214308D01*
X142777240Y-107393575D01*
X142791000Y-107533282D01*
X142791000Y-109426718D01*
X142777240Y-109566425D01*
X142777239Y-109566428D01*
X142777239Y-109566429D01*
X142722860Y-109745693D01*
X142722858Y-109745696D01*
X142722858Y-109745697D01*
X142634554Y-109910903D01*
X142515712Y-110055712D01*
X142370903Y-110174554D01*
X142223425Y-110253382D01*
X142205693Y-110262860D01*
X142026429Y-110317239D01*
X142026428Y-110317239D01*
X142026425Y-110317240D01*
X141840000Y-110335601D01*
X141653576Y-110317240D01*
X141653573Y-110317239D01*
X141653572Y-110317239D01*
X141474308Y-110262860D01*
X141456576Y-110253382D01*
X141309098Y-110174554D01*
X141164289Y-110055712D01*
X141045447Y-109910903D01*
X140957143Y-109745697D01*
X140957143Y-109745696D01*
X140957141Y-109745693D01*
X140902762Y-109566429D01*
X140902762Y-109566428D01*
X140902761Y-109566425D01*
X140889000Y-109426717D01*
X140889000Y-107533283D01*
X140902760Y-107393576D01*
X140902761Y-107393572D01*
X140957140Y-107214308D01*
X140957143Y-107214303D01*
X141045446Y-107049097D01*
X141164288Y-106904288D01*
X141309097Y-106785446D01*
X141474303Y-106697142D01*
X141474304Y-106697142D01*
X141474307Y-106697140D01*
X141653571Y-106642761D01*
X141653572Y-106642761D01*
X141653575Y-106642760D01*
X141840000Y-106624399D01*
X142026424Y-106642760D01*
X142026424Y-106642760D01*
G37*
G36*
X145836424Y-106642760D02*
G01*
X145836427Y-106642761D01*
X145836428Y-106642761D01*
X146015692Y-106697140D01*
X146015695Y-106697142D01*
X146015696Y-106697142D01*
X146180903Y-106785446D01*
X146325712Y-106904288D01*
X146444554Y-107049097D01*
X146532858Y-107214303D01*
X146532860Y-107214307D01*
X146532860Y-107214308D01*
X146587240Y-107393575D01*
X146601000Y-107533282D01*
X146601000Y-109426718D01*
X146587240Y-109566425D01*
X146587239Y-109566428D01*
X146587239Y-109566429D01*
X146532860Y-109745693D01*
X146532858Y-109745696D01*
X146532858Y-109745697D01*
X146444554Y-109910903D01*
X146325712Y-110055712D01*
X146180903Y-110174554D01*
X146033425Y-110253382D01*
X146015693Y-110262860D01*
X145836429Y-110317239D01*
X145836428Y-110317239D01*
X145836425Y-110317240D01*
X145650000Y-110335601D01*
X145463576Y-110317240D01*
X145463573Y-110317239D01*
X145463572Y-110317239D01*
X145284308Y-110262860D01*
X145266576Y-110253382D01*
X145119098Y-110174554D01*
X144974289Y-110055712D01*
X144855447Y-109910903D01*
X144767143Y-109745697D01*
X144767143Y-109745696D01*
X144767141Y-109745693D01*
X144712762Y-109566429D01*
X144712762Y-109566428D01*
X144712761Y-109566425D01*
X144699000Y-109426717D01*
X144699000Y-107533283D01*
X144712760Y-107393576D01*
X144712761Y-107393572D01*
X144767140Y-107214308D01*
X144767143Y-107214303D01*
X144855446Y-107049097D01*
X144974288Y-106904288D01*
X145119097Y-106785446D01*
X145284303Y-106697142D01*
X145284304Y-106697142D01*
X145284307Y-106697140D01*
X145463571Y-106642761D01*
X145463572Y-106642761D01*
X145463575Y-106642760D01*
X145650000Y-106624399D01*
X145836424Y-106642760D01*
X145836424Y-106642760D01*
G37*
G36*
X138840915Y-106632934D02*
G01*
X138873424Y-106642795D01*
X138903382Y-106658809D01*
X138929641Y-106680359D01*
X138951191Y-106706618D01*
X138967205Y-106736576D01*
X138977066Y-106769085D01*
X138981000Y-106809029D01*
X138981000Y-110150971D01*
X138977066Y-110190915D01*
X138967205Y-110223424D01*
X138951191Y-110253382D01*
X138929641Y-110279641D01*
X138903382Y-110301191D01*
X138873424Y-110317205D01*
X138840915Y-110327066D01*
X138800971Y-110331000D01*
X137259029Y-110331000D01*
X137219085Y-110327066D01*
X137186576Y-110317205D01*
X137156618Y-110301191D01*
X137130359Y-110279641D01*
X137108809Y-110253382D01*
X137092795Y-110223424D01*
X137082934Y-110190915D01*
X137079000Y-110150971D01*
X137079000Y-106809029D01*
X137082934Y-106769085D01*
X137092795Y-106736576D01*
X137108809Y-106706618D01*
X137130359Y-106680359D01*
X137156618Y-106658809D01*
X137186576Y-106642795D01*
X137219085Y-106632934D01*
X137259029Y-106629000D01*
X138800971Y-106629000D01*
X138840915Y-106632934D01*
X138840915Y-106632934D01*
G37*
G36*
X161167142Y-102868242D02*
G01*
X161315101Y-102929529D01*
X161448255Y-103018499D01*
X161561501Y-103131745D01*
X161650471Y-103264899D01*
X161711758Y-103412858D01*
X161743000Y-103569925D01*
X161743000Y-103730075D01*
X161711758Y-103887142D01*
X161650471Y-104035101D01*
X161561501Y-104168255D01*
X161448255Y-104281501D01*
X161315101Y-104370471D01*
X161167142Y-104431758D01*
X161010075Y-104463000D01*
X160849925Y-104463000D01*
X160692858Y-104431758D01*
X160544899Y-104370471D01*
X160411745Y-104281501D01*
X160298499Y-104168255D01*
X160209529Y-104035101D01*
X160148242Y-103887142D01*
X160117000Y-103730075D01*
X160117000Y-103569925D01*
X160148242Y-103412858D01*
X160209529Y-103264899D01*
X160298499Y-103131745D01*
X160411745Y-103018499D01*
X160544899Y-102929529D01*
X160692858Y-102868242D01*
X160849925Y-102837000D01*
X161010075Y-102837000D01*
X161167142Y-102868242D01*
X161167142Y-102868242D01*
G37*
G36*
X161167142Y-100328242D02*
G01*
X161315101Y-100389529D01*
X161448255Y-100478499D01*
X161561501Y-100591745D01*
X161650471Y-100724899D01*
X161711758Y-100872858D01*
X161743000Y-101029925D01*
X161743000Y-101190075D01*
X161711758Y-101347142D01*
X161650471Y-101495101D01*
X161561501Y-101628255D01*
X161448255Y-101741501D01*
X161315101Y-101830471D01*
X161167142Y-101891758D01*
X161010075Y-101923000D01*
X160849925Y-101923000D01*
X160692858Y-101891758D01*
X160544899Y-101830471D01*
X160411745Y-101741501D01*
X160298499Y-101628255D01*
X160209529Y-101495101D01*
X160148242Y-101347142D01*
X160117000Y-101190075D01*
X160117000Y-101029925D01*
X160148242Y-100872858D01*
X160209529Y-100724899D01*
X160298499Y-100591745D01*
X160411745Y-100478499D01*
X160544899Y-100389529D01*
X160692858Y-100328242D01*
X160849925Y-100297000D01*
X161010075Y-100297000D01*
X161167142Y-100328242D01*
X161167142Y-100328242D01*
G37*
G36*
X161167142Y-97788242D02*
G01*
X161315101Y-97849529D01*
X161448255Y-97938499D01*
X161561501Y-98051745D01*
X161650471Y-98184899D01*
X161711758Y-98332858D01*
X161743000Y-98489925D01*
X161743000Y-98650075D01*
X161711758Y-98807142D01*
X161650471Y-98955101D01*
X161561501Y-99088255D01*
X161448255Y-99201501D01*
X161315101Y-99290471D01*
X161167142Y-99351758D01*
X161010075Y-99383000D01*
X160849925Y-99383000D01*
X160692858Y-99351758D01*
X160544899Y-99290471D01*
X160411745Y-99201501D01*
X160298499Y-99088255D01*
X160209529Y-98955101D01*
X160148242Y-98807142D01*
X160117000Y-98650075D01*
X160117000Y-98489925D01*
X160148242Y-98332858D01*
X160209529Y-98184899D01*
X160298499Y-98051745D01*
X160411745Y-97938499D01*
X160544899Y-97849529D01*
X160692858Y-97788242D01*
X160849925Y-97757000D01*
X161010075Y-97757000D01*
X161167142Y-97788242D01*
X161167142Y-97788242D01*
G37*
G36*
X161743000Y-96843000D02*
G01*
X160117000Y-96843000D01*
X160117000Y-95217000D01*
X161743000Y-95217000D01*
X161743000Y-96843000D01*
X161743000Y-96843000D01*
G37*
G36*
X157559591Y-92805585D02*
G01*
X157593569Y-92815893D01*
X157624890Y-92832634D01*
X157652339Y-92855161D01*
X157674866Y-92882610D01*
X157691607Y-92913931D01*
X157701915Y-92947909D01*
X157706000Y-92989390D01*
X157706000Y-93590610D01*
X157701915Y-93632091D01*
X157691607Y-93666069D01*
X157674866Y-93697390D01*
X157652339Y-93724839D01*
X157624890Y-93747366D01*
X157593569Y-93764107D01*
X157559591Y-93774415D01*
X157518110Y-93778500D01*
X156841890Y-93778500D01*
X156800409Y-93774415D01*
X156766431Y-93764107D01*
X156735110Y-93747366D01*
X156707661Y-93724839D01*
X156685134Y-93697390D01*
X156668393Y-93666069D01*
X156658085Y-93632091D01*
X156654000Y-93590610D01*
X156654000Y-92989390D01*
X156658085Y-92947909D01*
X156668393Y-92913931D01*
X156685134Y-92882610D01*
X156707661Y-92855161D01*
X156735110Y-92832634D01*
X156766431Y-92815893D01*
X156800409Y-92805585D01*
X156841890Y-92801500D01*
X157518110Y-92801500D01*
X157559591Y-92805585D01*
X157559591Y-92805585D01*
G37*
G36*
X157559591Y-91230585D02*
G01*
X157593569Y-91240893D01*
X157624890Y-91257634D01*
X157652339Y-91280161D01*
X157674866Y-91307610D01*
X157691607Y-91338931D01*
X157701915Y-91372909D01*
X157706000Y-91414390D01*
X157706000Y-92015610D01*
X157701915Y-92057091D01*
X157691607Y-92091069D01*
X157674866Y-92122390D01*
X157652339Y-92149839D01*
X157624890Y-92172366D01*
X157593569Y-92189107D01*
X157559591Y-92199415D01*
X157518110Y-92203500D01*
X156841890Y-92203500D01*
X156800409Y-92199415D01*
X156766431Y-92189107D01*
X156735110Y-92172366D01*
X156707661Y-92149839D01*
X156685134Y-92122390D01*
X156668393Y-92091069D01*
X156658085Y-92057091D01*
X156654000Y-92015610D01*
X156654000Y-91414390D01*
X156658085Y-91372909D01*
X156668393Y-91338931D01*
X156685134Y-91307610D01*
X156707661Y-91280161D01*
X156735110Y-91257634D01*
X156766431Y-91240893D01*
X156800409Y-91230585D01*
X156841890Y-91226500D01*
X157518110Y-91226500D01*
X157559591Y-91230585D01*
X157559591Y-91230585D01*
G37*
G36*
X147521000Y-90181000D02*
G01*
X145719000Y-90181000D01*
X145719000Y-89429000D01*
X147521000Y-89429000D01*
X147521000Y-90181000D01*
X147521000Y-90181000D01*
G37*
G36*
X154821000Y-90181000D02*
G01*
X153019000Y-90181000D01*
X153019000Y-89429000D01*
X154821000Y-89429000D01*
X154821000Y-90181000D01*
X154821000Y-90181000D01*
G37*
G36*
X147521000Y-88911000D02*
G01*
X145719000Y-88911000D01*
X145719000Y-88159000D01*
X147521000Y-88159000D01*
X147521000Y-88911000D01*
X147521000Y-88911000D01*
G37*
G36*
X154821000Y-88911000D02*
G01*
X153019000Y-88911000D01*
X153019000Y-88159000D01*
X154821000Y-88159000D01*
X154821000Y-88911000D01*
X154821000Y-88911000D01*
G37*
G36*
X143559591Y-87535585D02*
G01*
X143593569Y-87545893D01*
X143624890Y-87562634D01*
X143652339Y-87585161D01*
X143674866Y-87612610D01*
X143691607Y-87643931D01*
X143701915Y-87677909D01*
X143706000Y-87719390D01*
X143706000Y-88320610D01*
X143701915Y-88362091D01*
X143691607Y-88396069D01*
X143674866Y-88427390D01*
X143652339Y-88454839D01*
X143624890Y-88477366D01*
X143593569Y-88494107D01*
X143559591Y-88504415D01*
X143518110Y-88508500D01*
X142841890Y-88508500D01*
X142800409Y-88504415D01*
X142766431Y-88494107D01*
X142735110Y-88477366D01*
X142707661Y-88454839D01*
X142685134Y-88427390D01*
X142668393Y-88396069D01*
X142658085Y-88362091D01*
X142654000Y-88320610D01*
X142654000Y-87719390D01*
X142658085Y-87677909D01*
X142668393Y-87643931D01*
X142685134Y-87612610D01*
X142707661Y-87585161D01*
X142735110Y-87562634D01*
X142766431Y-87545893D01*
X142800409Y-87535585D01*
X142841890Y-87531500D01*
X143518110Y-87531500D01*
X143559591Y-87535585D01*
X143559591Y-87535585D01*
G37*
G36*
X154821000Y-87641000D02*
G01*
X153019000Y-87641000D01*
X153019000Y-86889000D01*
X154821000Y-86889000D01*
X154821000Y-87641000D01*
X154821000Y-87641000D01*
G37*
G36*
X147521000Y-87641000D02*
G01*
X145719000Y-87641000D01*
X145719000Y-86889000D01*
X147521000Y-86889000D01*
X147521000Y-87641000D01*
X147521000Y-87641000D01*
G37*
G36*
X143559591Y-85960585D02*
G01*
X143593569Y-85970893D01*
X143624890Y-85987634D01*
X143652339Y-86010161D01*
X143674866Y-86037610D01*
X143691607Y-86068931D01*
X143701915Y-86102909D01*
X143706000Y-86144390D01*
X143706000Y-86745610D01*
X143701915Y-86787091D01*
X143691607Y-86821069D01*
X143674866Y-86852390D01*
X143652339Y-86879839D01*
X143624890Y-86902366D01*
X143593569Y-86919107D01*
X143559591Y-86929415D01*
X143518110Y-86933500D01*
X142841890Y-86933500D01*
X142800409Y-86929415D01*
X142766431Y-86919107D01*
X142735110Y-86902366D01*
X142707661Y-86879839D01*
X142685134Y-86852390D01*
X142668393Y-86821069D01*
X142658085Y-86787091D01*
X142654000Y-86745610D01*
X142654000Y-86144390D01*
X142658085Y-86102909D01*
X142668393Y-86068931D01*
X142685134Y-86037610D01*
X142707661Y-86010161D01*
X142735110Y-85987634D01*
X142766431Y-85970893D01*
X142800409Y-85960585D01*
X142841890Y-85956500D01*
X143518110Y-85956500D01*
X143559591Y-85960585D01*
X143559591Y-85960585D01*
G37*
G36*
X147521000Y-86371000D02*
G01*
X145719000Y-86371000D01*
X145719000Y-85619000D01*
X147521000Y-85619000D01*
X147521000Y-86371000D01*
X147521000Y-86371000D01*
G37*
G36*
X154821000Y-86371000D02*
G01*
X153019000Y-86371000D01*
X153019000Y-85619000D01*
X154821000Y-85619000D01*
X154821000Y-86371000D01*
X154821000Y-86371000D01*
G37*
G36*
X156257091Y-76933085D02*
G01*
X156291069Y-76943393D01*
X156322390Y-76960134D01*
X156349839Y-76982661D01*
X156372366Y-77010110D01*
X156389107Y-77041431D01*
X156399415Y-77075409D01*
X156403500Y-77116890D01*
X156403500Y-77718110D01*
X156399415Y-77759591D01*
X156389107Y-77793569D01*
X156372366Y-77824890D01*
X156349839Y-77852339D01*
X156322390Y-77874866D01*
X156291069Y-77891607D01*
X156257091Y-77901915D01*
X156215610Y-77906000D01*
X155539390Y-77906000D01*
X155497909Y-77901915D01*
X155463931Y-77891607D01*
X155432610Y-77874866D01*
X155405161Y-77852339D01*
X155382634Y-77824890D01*
X155365893Y-77793569D01*
X155355585Y-77759591D01*
X155351500Y-77718110D01*
X155351500Y-77116890D01*
X155355585Y-77075409D01*
X155365893Y-77041431D01*
X155382634Y-77010110D01*
X155405161Y-76982661D01*
X155432610Y-76960134D01*
X155463931Y-76943393D01*
X155497909Y-76933085D01*
X155539390Y-76929000D01*
X156215610Y-76929000D01*
X156257091Y-76933085D01*
X156257091Y-76933085D01*
G37*
G36*
X165175613Y-74589275D02*
G01*
X165194555Y-74604820D01*
X165207996Y-74612004D01*
X165215180Y-74625445D01*
X165230725Y-74644387D01*
X165936338Y-75350000D01*
X164450000Y-76836338D01*
X162963662Y-75350000D01*
X164450000Y-73863662D01*
X165175613Y-74589275D01*
X165175613Y-74589275D01*
G37*
G36*
X156257091Y-75358085D02*
G01*
X156291069Y-75368393D01*
X156322390Y-75385134D01*
X156349839Y-75407661D01*
X156372366Y-75435110D01*
X156389107Y-75466431D01*
X156399415Y-75500409D01*
X156403500Y-75541890D01*
X156403500Y-76143110D01*
X156399415Y-76184591D01*
X156389107Y-76218569D01*
X156372366Y-76249890D01*
X156349839Y-76277339D01*
X156322390Y-76299866D01*
X156291069Y-76316607D01*
X156257091Y-76326915D01*
X156215610Y-76331000D01*
X155539390Y-76331000D01*
X155497909Y-76326915D01*
X155463931Y-76316607D01*
X155432610Y-76299866D01*
X155405161Y-76277339D01*
X155382634Y-76249890D01*
X155365893Y-76218569D01*
X155355585Y-76184591D01*
X155351500Y-76143110D01*
X155351500Y-75541890D01*
X155355585Y-75500409D01*
X155365893Y-75466431D01*
X155382634Y-75435110D01*
X155405161Y-75407661D01*
X155432610Y-75385134D01*
X155463931Y-75368393D01*
X155497909Y-75358085D01*
X155539390Y-75354000D01*
X156215610Y-75354000D01*
X156257091Y-75358085D01*
X156257091Y-75358085D01*
G37*
G36*
X147032091Y-75168085D02*
G01*
X147066069Y-75178393D01*
X147097390Y-75195134D01*
X147124839Y-75217661D01*
X147147366Y-75245110D01*
X147164107Y-75276431D01*
X147174415Y-75310409D01*
X147178500Y-75351890D01*
X147178500Y-76028110D01*
X147174415Y-76069591D01*
X147164107Y-76103569D01*
X147147366Y-76134890D01*
X147124839Y-76162339D01*
X147097390Y-76184866D01*
X147066069Y-76201607D01*
X147032091Y-76211915D01*
X146990610Y-76216000D01*
X146389390Y-76216000D01*
X146347909Y-76211915D01*
X146313931Y-76201607D01*
X146282610Y-76184866D01*
X146255161Y-76162339D01*
X146232634Y-76134890D01*
X146215893Y-76103569D01*
X146205585Y-76069591D01*
X146201500Y-76028110D01*
X146201500Y-75351890D01*
X146205585Y-75310409D01*
X146215893Y-75276431D01*
X146232634Y-75245110D01*
X146255161Y-75217661D01*
X146282610Y-75195134D01*
X146313931Y-75178393D01*
X146347909Y-75168085D01*
X146389390Y-75164000D01*
X146990610Y-75164000D01*
X147032091Y-75168085D01*
X147032091Y-75168085D01*
G37*
G36*
X145457091Y-75168085D02*
G01*
X145491069Y-75178393D01*
X145522390Y-75195134D01*
X145549839Y-75217661D01*
X145572366Y-75245110D01*
X145589107Y-75276431D01*
X145599415Y-75310409D01*
X145603500Y-75351890D01*
X145603500Y-76028110D01*
X145599415Y-76069591D01*
X145589107Y-76103569D01*
X145572366Y-76134890D01*
X145549839Y-76162339D01*
X145522390Y-76184866D01*
X145491069Y-76201607D01*
X145457091Y-76211915D01*
X145415610Y-76216000D01*
X144814390Y-76216000D01*
X144772909Y-76211915D01*
X144738931Y-76201607D01*
X144707610Y-76184866D01*
X144680161Y-76162339D01*
X144657634Y-76134890D01*
X144640893Y-76103569D01*
X144630585Y-76069591D01*
X144626500Y-76028110D01*
X144626500Y-75351890D01*
X144630585Y-75310409D01*
X144640893Y-75276431D01*
X144657634Y-75245110D01*
X144680161Y-75217661D01*
X144707610Y-75195134D01*
X144738931Y-75178393D01*
X144772909Y-75168085D01*
X144814390Y-75164000D01*
X145415610Y-75164000D01*
X145457091Y-75168085D01*
X145457091Y-75168085D01*
G37*
G36*
X134850442Y-74075518D02*
G01*
X134916627Y-74082037D01*
X135086466Y-74133557D01*
X135242991Y-74217222D01*
X135278729Y-74246552D01*
X135380186Y-74329814D01*
X135463226Y-74431000D01*
X135492778Y-74467009D01*
X135576443Y-74623534D01*
X135627963Y-74793373D01*
X135645359Y-74970000D01*
X135627963Y-75146627D01*
X135576443Y-75316466D01*
X135492778Y-75472991D01*
X135470276Y-75500409D01*
X135380186Y-75610186D01*
X135278729Y-75693448D01*
X135242991Y-75722778D01*
X135086466Y-75806443D01*
X134916627Y-75857963D01*
X134850443Y-75864481D01*
X134784260Y-75871000D01*
X134695740Y-75871000D01*
X134629557Y-75864481D01*
X134563373Y-75857963D01*
X134393534Y-75806443D01*
X134237009Y-75722778D01*
X134201271Y-75693448D01*
X134099814Y-75610186D01*
X134009724Y-75500409D01*
X133987222Y-75472991D01*
X133903557Y-75316466D01*
X133852037Y-75146627D01*
X133834641Y-74970000D01*
X133852037Y-74793373D01*
X133903557Y-74623534D01*
X133987222Y-74467009D01*
X134016774Y-74431000D01*
X134099814Y-74329814D01*
X134201271Y-74246552D01*
X134237009Y-74217222D01*
X134393534Y-74133557D01*
X134563373Y-74082037D01*
X134629558Y-74075518D01*
X134695740Y-74069000D01*
X134784260Y-74069000D01*
X134850442Y-74075518D01*
X134850442Y-74075518D01*
G37*
G36*
X132310442Y-74075518D02*
G01*
X132376627Y-74082037D01*
X132546466Y-74133557D01*
X132702991Y-74217222D01*
X132738729Y-74246552D01*
X132840186Y-74329814D01*
X132923226Y-74431000D01*
X132952778Y-74467009D01*
X133036443Y-74623534D01*
X133087963Y-74793373D01*
X133105359Y-74970000D01*
X133087963Y-75146627D01*
X133036443Y-75316466D01*
X132952778Y-75472991D01*
X132930276Y-75500409D01*
X132840186Y-75610186D01*
X132738729Y-75693448D01*
X132702991Y-75722778D01*
X132546466Y-75806443D01*
X132376627Y-75857963D01*
X132310443Y-75864481D01*
X132244260Y-75871000D01*
X132155740Y-75871000D01*
X132089557Y-75864481D01*
X132023373Y-75857963D01*
X131853534Y-75806443D01*
X131697009Y-75722778D01*
X131661271Y-75693448D01*
X131559814Y-75610186D01*
X131469724Y-75500409D01*
X131447222Y-75472991D01*
X131363557Y-75316466D01*
X131312037Y-75146627D01*
X131294641Y-74970000D01*
X131312037Y-74793373D01*
X131363557Y-74623534D01*
X131447222Y-74467009D01*
X131476774Y-74431000D01*
X131559814Y-74329814D01*
X131661271Y-74246552D01*
X131697009Y-74217222D01*
X131853534Y-74133557D01*
X132023373Y-74082037D01*
X132089558Y-74075518D01*
X132155740Y-74069000D01*
X132244260Y-74069000D01*
X132310442Y-74075518D01*
X132310442Y-74075518D01*
G37*
G36*
X127901000Y-75871000D02*
G01*
X126099000Y-75871000D01*
X126099000Y-74069000D01*
X127901000Y-74069000D01*
X127901000Y-75871000D01*
X127901000Y-75871000D01*
G37*
G36*
X166791000Y-74431000D02*
G01*
X165389000Y-74431000D01*
X165389000Y-70929000D01*
X166791000Y-70929000D01*
X166791000Y-74431000D01*
X166791000Y-74431000D01*
G37*
G36*
X158091000Y-74431000D02*
G01*
X156689000Y-74431000D01*
X156689000Y-70929000D01*
X158091000Y-70929000D01*
X158091000Y-74431000D01*
X158091000Y-74431000D01*
G37*
G36*
X149211000Y-74161000D02*
G01*
X147609000Y-74161000D01*
X147609000Y-73059000D01*
X149211000Y-73059000D01*
X149211000Y-74161000D01*
X149211000Y-74161000D01*
G37*
G36*
X144311000Y-74161000D02*
G01*
X142709000Y-74161000D01*
X142709000Y-73059000D01*
X144311000Y-73059000D01*
X144311000Y-74161000D01*
X144311000Y-74161000D01*
G37*
G36*
X127110443Y-71535519D02*
G01*
X127176627Y-71542037D01*
X127346466Y-71593557D01*
X127502991Y-71677222D01*
X127538729Y-71706552D01*
X127640186Y-71789814D01*
X127723448Y-71891271D01*
X127752778Y-71927009D01*
X127836443Y-72083534D01*
X127887963Y-72253373D01*
X127905359Y-72430000D01*
X127887963Y-72606627D01*
X127836443Y-72776466D01*
X127752778Y-72932991D01*
X127723448Y-72968729D01*
X127640186Y-73070186D01*
X127538729Y-73153448D01*
X127502991Y-73182778D01*
X127346466Y-73266443D01*
X127176627Y-73317963D01*
X127110443Y-73324481D01*
X127044260Y-73331000D01*
X126955740Y-73331000D01*
X126889557Y-73324481D01*
X126823373Y-73317963D01*
X126653534Y-73266443D01*
X126497009Y-73182778D01*
X126461271Y-73153448D01*
X126359814Y-73070186D01*
X126276552Y-72968729D01*
X126247222Y-72932991D01*
X126163557Y-72776466D01*
X126112037Y-72606627D01*
X126094641Y-72430000D01*
X126112037Y-72253373D01*
X126163557Y-72083534D01*
X126247222Y-71927009D01*
X126276552Y-71891271D01*
X126359814Y-71789814D01*
X126461271Y-71706552D01*
X126497009Y-71677222D01*
X126653534Y-71593557D01*
X126823373Y-71542037D01*
X126889557Y-71535519D01*
X126955740Y-71529000D01*
X127044260Y-71529000D01*
X127110443Y-71535519D01*
X127110443Y-71535519D01*
G37*
G36*
X132310443Y-71535519D02*
G01*
X132376627Y-71542037D01*
X132546466Y-71593557D01*
X132702991Y-71677222D01*
X132738729Y-71706552D01*
X132840186Y-71789814D01*
X132923448Y-71891271D01*
X132952778Y-71927009D01*
X133036443Y-72083534D01*
X133087963Y-72253373D01*
X133105359Y-72430000D01*
X133087963Y-72606627D01*
X133036443Y-72776466D01*
X132952778Y-72932991D01*
X132923448Y-72968729D01*
X132840186Y-73070186D01*
X132738729Y-73153448D01*
X132702991Y-73182778D01*
X132546466Y-73266443D01*
X132376627Y-73317963D01*
X132310443Y-73324481D01*
X132244260Y-73331000D01*
X132155740Y-73331000D01*
X132089557Y-73324481D01*
X132023373Y-73317963D01*
X131853534Y-73266443D01*
X131697009Y-73182778D01*
X131661271Y-73153448D01*
X131559814Y-73070186D01*
X131476552Y-72968729D01*
X131447222Y-72932991D01*
X131363557Y-72776466D01*
X131312037Y-72606627D01*
X131294641Y-72430000D01*
X131312037Y-72253373D01*
X131363557Y-72083534D01*
X131447222Y-71927009D01*
X131476552Y-71891271D01*
X131559814Y-71789814D01*
X131661271Y-71706552D01*
X131697009Y-71677222D01*
X131853534Y-71593557D01*
X132023373Y-71542037D01*
X132089557Y-71535519D01*
X132155740Y-71529000D01*
X132244260Y-71529000D01*
X132310443Y-71535519D01*
X132310443Y-71535519D01*
G37*
G36*
X134850443Y-71535519D02*
G01*
X134916627Y-71542037D01*
X135086466Y-71593557D01*
X135242991Y-71677222D01*
X135278729Y-71706552D01*
X135380186Y-71789814D01*
X135463448Y-71891271D01*
X135492778Y-71927009D01*
X135576443Y-72083534D01*
X135627963Y-72253373D01*
X135645359Y-72430000D01*
X135627963Y-72606627D01*
X135576443Y-72776466D01*
X135492778Y-72932991D01*
X135463448Y-72968729D01*
X135380186Y-73070186D01*
X135278729Y-73153448D01*
X135242991Y-73182778D01*
X135086466Y-73266443D01*
X134916627Y-73317963D01*
X134850443Y-73324481D01*
X134784260Y-73331000D01*
X134695740Y-73331000D01*
X134629557Y-73324481D01*
X134563373Y-73317963D01*
X134393534Y-73266443D01*
X134237009Y-73182778D01*
X134201271Y-73153448D01*
X134099814Y-73070186D01*
X134016552Y-72968729D01*
X133987222Y-72932991D01*
X133903557Y-72776466D01*
X133852037Y-72606627D01*
X133834641Y-72430000D01*
X133852037Y-72253373D01*
X133903557Y-72083534D01*
X133987222Y-71927009D01*
X134016552Y-71891271D01*
X134099814Y-71789814D01*
X134201271Y-71706552D01*
X134237009Y-71677222D01*
X134393534Y-71593557D01*
X134563373Y-71542037D01*
X134629557Y-71535519D01*
X134695740Y-71529000D01*
X134784260Y-71529000D01*
X134850443Y-71535519D01*
X134850443Y-71535519D01*
G37*
G36*
X159382552Y-68965377D02*
G01*
X159573821Y-69044603D01*
X159573823Y-69044604D01*
X159745961Y-69159623D01*
X159892353Y-69306015D01*
X160007373Y-69478155D01*
X160086599Y-69669424D01*
X160126988Y-69872472D01*
X160126988Y-70079504D01*
X160086599Y-70282552D01*
X160007373Y-70473821D01*
X160007372Y-70473823D01*
X159892353Y-70645961D01*
X159745961Y-70792353D01*
X159573823Y-70907372D01*
X159573822Y-70907373D01*
X159573821Y-70907373D01*
X159382552Y-70986599D01*
X159179504Y-71026988D01*
X158972472Y-71026988D01*
X158769424Y-70986599D01*
X158578155Y-70907373D01*
X158578154Y-70907373D01*
X158578153Y-70907372D01*
X158406015Y-70792353D01*
X158259623Y-70645961D01*
X158144604Y-70473823D01*
X158144603Y-70473821D01*
X158065377Y-70282552D01*
X158024988Y-70079504D01*
X158024988Y-69872472D01*
X158065377Y-69669424D01*
X158144603Y-69478155D01*
X158259623Y-69306015D01*
X158406015Y-69159623D01*
X158578153Y-69044604D01*
X158578155Y-69044603D01*
X158769424Y-68965377D01*
X158972472Y-68924988D01*
X159179504Y-68924988D01*
X159382552Y-68965377D01*
X159382552Y-68965377D01*
G37*
G36*
X144311000Y-70961000D02*
G01*
X142709000Y-70961000D01*
X142709000Y-69859000D01*
X144311000Y-69859000D01*
X144311000Y-70961000D01*
X144311000Y-70961000D01*
G37*
G36*
X149211000Y-70961000D02*
G01*
X147609000Y-70961000D01*
X147609000Y-69859000D01*
X149211000Y-69859000D01*
X149211000Y-70961000D01*
X149211000Y-70961000D01*
G37*
G36*
X127110442Y-68995518D02*
G01*
X127176627Y-69002037D01*
X127346466Y-69053557D01*
X127502991Y-69137222D01*
X127538729Y-69166552D01*
X127640186Y-69249814D01*
X127723448Y-69351271D01*
X127752778Y-69387009D01*
X127836443Y-69543534D01*
X127887963Y-69713373D01*
X127905359Y-69890000D01*
X127887963Y-70066627D01*
X127836443Y-70236466D01*
X127752778Y-70392991D01*
X127723448Y-70428729D01*
X127640186Y-70530186D01*
X127538729Y-70613448D01*
X127502991Y-70642778D01*
X127346466Y-70726443D01*
X127176627Y-70777963D01*
X127110442Y-70784482D01*
X127044260Y-70791000D01*
X126955740Y-70791000D01*
X126889558Y-70784482D01*
X126823373Y-70777963D01*
X126653534Y-70726443D01*
X126497009Y-70642778D01*
X126461271Y-70613448D01*
X126359814Y-70530186D01*
X126276552Y-70428729D01*
X126247222Y-70392991D01*
X126163557Y-70236466D01*
X126112037Y-70066627D01*
X126094641Y-69890000D01*
X126112037Y-69713373D01*
X126163557Y-69543534D01*
X126247222Y-69387009D01*
X126276552Y-69351271D01*
X126359814Y-69249814D01*
X126461271Y-69166552D01*
X126497009Y-69137222D01*
X126653534Y-69053557D01*
X126823373Y-69002037D01*
X126889558Y-68995518D01*
X126955740Y-68989000D01*
X127044260Y-68989000D01*
X127110442Y-68995518D01*
X127110442Y-68995518D01*
G37*
G36*
X132310442Y-68995518D02*
G01*
X132376627Y-69002037D01*
X132546466Y-69053557D01*
X132702991Y-69137222D01*
X132738729Y-69166552D01*
X132840186Y-69249814D01*
X132923448Y-69351271D01*
X132952778Y-69387009D01*
X133036443Y-69543534D01*
X133087963Y-69713373D01*
X133105359Y-69890000D01*
X133087963Y-70066627D01*
X133036443Y-70236466D01*
X132952778Y-70392991D01*
X132923448Y-70428729D01*
X132840186Y-70530186D01*
X132738729Y-70613448D01*
X132702991Y-70642778D01*
X132546466Y-70726443D01*
X132376627Y-70777963D01*
X132310442Y-70784482D01*
X132244260Y-70791000D01*
X132155740Y-70791000D01*
X132089558Y-70784482D01*
X132023373Y-70777963D01*
X131853534Y-70726443D01*
X131697009Y-70642778D01*
X131661271Y-70613448D01*
X131559814Y-70530186D01*
X131476552Y-70428729D01*
X131447222Y-70392991D01*
X131363557Y-70236466D01*
X131312037Y-70066627D01*
X131294641Y-69890000D01*
X131312037Y-69713373D01*
X131363557Y-69543534D01*
X131447222Y-69387009D01*
X131476552Y-69351271D01*
X131559814Y-69249814D01*
X131661271Y-69166552D01*
X131697009Y-69137222D01*
X131853534Y-69053557D01*
X132023373Y-69002037D01*
X132089558Y-68995518D01*
X132155740Y-68989000D01*
X132244260Y-68989000D01*
X132310442Y-68995518D01*
X132310442Y-68995518D01*
G37*
G36*
X135641000Y-70791000D02*
G01*
X133839000Y-70791000D01*
X133839000Y-68989000D01*
X135641000Y-68989000D01*
X135641000Y-70791000D01*
X135641000Y-70791000D01*
G37*
M02*
