G04 #@! TF.GenerationSoftware,KiCad,Pcbnew,(5.1.2-1)-1*
G04 #@! TF.CreationDate,2019-07-21T21:30:42+01:00*
G04 #@! TF.ProjectId,nfc_reader_module,6e66635f-7265-4616-9465-725f6d6f6475,rev?*
G04 #@! TF.SameCoordinates,Original*
G04 #@! TF.FileFunction,Soldermask,Bot*
G04 #@! TF.FilePolarity,Negative*
%FSLAX46Y46*%
G04 Gerber Fmt 4.6, Leading zero omitted, Abs format (unit mm)*
G04 Created by KiCad (PCBNEW (5.1.2-1)-1) date 2019-07-21 21:30:42*
%MOMM*%
%LPD*%
G04 APERTURE LIST*
%ADD10C,0.100000*%
G04 APERTURE END LIST*
D10*
G36*
X142026424Y-106642760D02*
G01*
X142026427Y-106642761D01*
X142026428Y-106642761D01*
X142205692Y-106697140D01*
X142205695Y-106697142D01*
X142205696Y-106697142D01*
X142370903Y-106785446D01*
X142515712Y-106904288D01*
X142634554Y-107049097D01*
X142722858Y-107214303D01*
X142722860Y-107214307D01*
X142722860Y-107214308D01*
X142777240Y-107393575D01*
X142791000Y-107533282D01*
X142791000Y-109426718D01*
X142777240Y-109566425D01*
X142777239Y-109566428D01*
X142777239Y-109566429D01*
X142722860Y-109745693D01*
X142722858Y-109745696D01*
X142722858Y-109745697D01*
X142634554Y-109910903D01*
X142515712Y-110055712D01*
X142370903Y-110174554D01*
X142223425Y-110253382D01*
X142205693Y-110262860D01*
X142026429Y-110317239D01*
X142026428Y-110317239D01*
X142026425Y-110317240D01*
X141840000Y-110335601D01*
X141653576Y-110317240D01*
X141653573Y-110317239D01*
X141653572Y-110317239D01*
X141474308Y-110262860D01*
X141456576Y-110253382D01*
X141309098Y-110174554D01*
X141164289Y-110055712D01*
X141045447Y-109910903D01*
X140957143Y-109745697D01*
X140957143Y-109745696D01*
X140957141Y-109745693D01*
X140902762Y-109566429D01*
X140902762Y-109566428D01*
X140902761Y-109566425D01*
X140889000Y-109426717D01*
X140889000Y-107533283D01*
X140902760Y-107393576D01*
X140902761Y-107393572D01*
X140957140Y-107214308D01*
X140957143Y-107214303D01*
X141045446Y-107049097D01*
X141164288Y-106904288D01*
X141309097Y-106785446D01*
X141474303Y-106697142D01*
X141474304Y-106697142D01*
X141474307Y-106697140D01*
X141653571Y-106642761D01*
X141653572Y-106642761D01*
X141653575Y-106642760D01*
X141840000Y-106624399D01*
X142026424Y-106642760D01*
X142026424Y-106642760D01*
G37*
G36*
X145836424Y-106642760D02*
G01*
X145836427Y-106642761D01*
X145836428Y-106642761D01*
X146015692Y-106697140D01*
X146015695Y-106697142D01*
X146015696Y-106697142D01*
X146180903Y-106785446D01*
X146325712Y-106904288D01*
X146444554Y-107049097D01*
X146532858Y-107214303D01*
X146532860Y-107214307D01*
X146532860Y-107214308D01*
X146587240Y-107393575D01*
X146601000Y-107533282D01*
X146601000Y-109426718D01*
X146587240Y-109566425D01*
X146587239Y-109566428D01*
X146587239Y-109566429D01*
X146532860Y-109745693D01*
X146532858Y-109745696D01*
X146532858Y-109745697D01*
X146444554Y-109910903D01*
X146325712Y-110055712D01*
X146180903Y-110174554D01*
X146033425Y-110253382D01*
X146015693Y-110262860D01*
X145836429Y-110317239D01*
X145836428Y-110317239D01*
X145836425Y-110317240D01*
X145650000Y-110335601D01*
X145463576Y-110317240D01*
X145463573Y-110317239D01*
X145463572Y-110317239D01*
X145284308Y-110262860D01*
X145266576Y-110253382D01*
X145119098Y-110174554D01*
X144974289Y-110055712D01*
X144855447Y-109910903D01*
X144767143Y-109745697D01*
X144767143Y-109745696D01*
X144767141Y-109745693D01*
X144712762Y-109566429D01*
X144712762Y-109566428D01*
X144712761Y-109566425D01*
X144699000Y-109426717D01*
X144699000Y-107533283D01*
X144712760Y-107393576D01*
X144712761Y-107393572D01*
X144767140Y-107214308D01*
X144767143Y-107214303D01*
X144855446Y-107049097D01*
X144974288Y-106904288D01*
X145119097Y-106785446D01*
X145284303Y-106697142D01*
X145284304Y-106697142D01*
X145284307Y-106697140D01*
X145463571Y-106642761D01*
X145463572Y-106642761D01*
X145463575Y-106642760D01*
X145650000Y-106624399D01*
X145836424Y-106642760D01*
X145836424Y-106642760D01*
G37*
G36*
X149646424Y-106642760D02*
G01*
X149646427Y-106642761D01*
X149646428Y-106642761D01*
X149825692Y-106697140D01*
X149825695Y-106697142D01*
X149825696Y-106697142D01*
X149990903Y-106785446D01*
X150135712Y-106904288D01*
X150254554Y-107049097D01*
X150342858Y-107214303D01*
X150342860Y-107214307D01*
X150342860Y-107214308D01*
X150397240Y-107393575D01*
X150411000Y-107533282D01*
X150411000Y-109426718D01*
X150397240Y-109566425D01*
X150397239Y-109566428D01*
X150397239Y-109566429D01*
X150342860Y-109745693D01*
X150342858Y-109745696D01*
X150342858Y-109745697D01*
X150254554Y-109910903D01*
X150135712Y-110055712D01*
X149990903Y-110174554D01*
X149843425Y-110253382D01*
X149825693Y-110262860D01*
X149646429Y-110317239D01*
X149646428Y-110317239D01*
X149646425Y-110317240D01*
X149460000Y-110335601D01*
X149273576Y-110317240D01*
X149273573Y-110317239D01*
X149273572Y-110317239D01*
X149094308Y-110262860D01*
X149076576Y-110253382D01*
X148929098Y-110174554D01*
X148784289Y-110055712D01*
X148665447Y-109910903D01*
X148577143Y-109745697D01*
X148577143Y-109745696D01*
X148577141Y-109745693D01*
X148522762Y-109566429D01*
X148522762Y-109566428D01*
X148522761Y-109566425D01*
X148509000Y-109426717D01*
X148509000Y-107533283D01*
X148522760Y-107393576D01*
X148522761Y-107393572D01*
X148577140Y-107214308D01*
X148577143Y-107214303D01*
X148665446Y-107049097D01*
X148784288Y-106904288D01*
X148929097Y-106785446D01*
X149094303Y-106697142D01*
X149094304Y-106697142D01*
X149094307Y-106697140D01*
X149273571Y-106642761D01*
X149273572Y-106642761D01*
X149273575Y-106642760D01*
X149460000Y-106624399D01*
X149646424Y-106642760D01*
X149646424Y-106642760D01*
G37*
G36*
X138840915Y-106632934D02*
G01*
X138873424Y-106642795D01*
X138903382Y-106658809D01*
X138929641Y-106680359D01*
X138951191Y-106706618D01*
X138967205Y-106736576D01*
X138977066Y-106769085D01*
X138981000Y-106809029D01*
X138981000Y-110150971D01*
X138977066Y-110190915D01*
X138967205Y-110223424D01*
X138951191Y-110253382D01*
X138929641Y-110279641D01*
X138903382Y-110301191D01*
X138873424Y-110317205D01*
X138840915Y-110327066D01*
X138800971Y-110331000D01*
X137259029Y-110331000D01*
X137219085Y-110327066D01*
X137186576Y-110317205D01*
X137156618Y-110301191D01*
X137130359Y-110279641D01*
X137108809Y-110253382D01*
X137092795Y-110223424D01*
X137082934Y-110190915D01*
X137079000Y-110150971D01*
X137079000Y-106809029D01*
X137082934Y-106769085D01*
X137092795Y-106736576D01*
X137108809Y-106706618D01*
X137130359Y-106680359D01*
X137156618Y-106658809D01*
X137186576Y-106642795D01*
X137219085Y-106632934D01*
X137259029Y-106629000D01*
X138800971Y-106629000D01*
X138840915Y-106632934D01*
X138840915Y-106632934D01*
G37*
G36*
X161167142Y-102868242D02*
G01*
X161315101Y-102929529D01*
X161448255Y-103018499D01*
X161561501Y-103131745D01*
X161650471Y-103264899D01*
X161711758Y-103412858D01*
X161743000Y-103569925D01*
X161743000Y-103730075D01*
X161711758Y-103887142D01*
X161650471Y-104035101D01*
X161561501Y-104168255D01*
X161448255Y-104281501D01*
X161315101Y-104370471D01*
X161167142Y-104431758D01*
X161010075Y-104463000D01*
X160849925Y-104463000D01*
X160692858Y-104431758D01*
X160544899Y-104370471D01*
X160411745Y-104281501D01*
X160298499Y-104168255D01*
X160209529Y-104035101D01*
X160148242Y-103887142D01*
X160117000Y-103730075D01*
X160117000Y-103569925D01*
X160148242Y-103412858D01*
X160209529Y-103264899D01*
X160298499Y-103131745D01*
X160411745Y-103018499D01*
X160544899Y-102929529D01*
X160692858Y-102868242D01*
X160849925Y-102837000D01*
X161010075Y-102837000D01*
X161167142Y-102868242D01*
X161167142Y-102868242D01*
G37*
G36*
X161167142Y-100328242D02*
G01*
X161315101Y-100389529D01*
X161448255Y-100478499D01*
X161561501Y-100591745D01*
X161650471Y-100724899D01*
X161711758Y-100872858D01*
X161743000Y-101029925D01*
X161743000Y-101190075D01*
X161711758Y-101347142D01*
X161650471Y-101495101D01*
X161561501Y-101628255D01*
X161448255Y-101741501D01*
X161315101Y-101830471D01*
X161167142Y-101891758D01*
X161010075Y-101923000D01*
X160849925Y-101923000D01*
X160692858Y-101891758D01*
X160544899Y-101830471D01*
X160411745Y-101741501D01*
X160298499Y-101628255D01*
X160209529Y-101495101D01*
X160148242Y-101347142D01*
X160117000Y-101190075D01*
X160117000Y-101029925D01*
X160148242Y-100872858D01*
X160209529Y-100724899D01*
X160298499Y-100591745D01*
X160411745Y-100478499D01*
X160544899Y-100389529D01*
X160692858Y-100328242D01*
X160849925Y-100297000D01*
X161010075Y-100297000D01*
X161167142Y-100328242D01*
X161167142Y-100328242D01*
G37*
G36*
X161167142Y-97788242D02*
G01*
X161315101Y-97849529D01*
X161448255Y-97938499D01*
X161561501Y-98051745D01*
X161650471Y-98184899D01*
X161711758Y-98332858D01*
X161743000Y-98489925D01*
X161743000Y-98650075D01*
X161711758Y-98807142D01*
X161650471Y-98955101D01*
X161561501Y-99088255D01*
X161448255Y-99201501D01*
X161315101Y-99290471D01*
X161167142Y-99351758D01*
X161010075Y-99383000D01*
X160849925Y-99383000D01*
X160692858Y-99351758D01*
X160544899Y-99290471D01*
X160411745Y-99201501D01*
X160298499Y-99088255D01*
X160209529Y-98955101D01*
X160148242Y-98807142D01*
X160117000Y-98650075D01*
X160117000Y-98489925D01*
X160148242Y-98332858D01*
X160209529Y-98184899D01*
X160298499Y-98051745D01*
X160411745Y-97938499D01*
X160544899Y-97849529D01*
X160692858Y-97788242D01*
X160849925Y-97757000D01*
X161010075Y-97757000D01*
X161167142Y-97788242D01*
X161167142Y-97788242D01*
G37*
G36*
X161743000Y-96843000D02*
G01*
X160117000Y-96843000D01*
X160117000Y-95217000D01*
X161743000Y-95217000D01*
X161743000Y-96843000D01*
X161743000Y-96843000D01*
G37*
G36*
X165936338Y-75350000D02*
G01*
X164450000Y-76836338D01*
X162963662Y-75350000D01*
X164450000Y-73863662D01*
X165936338Y-75350000D01*
X165936338Y-75350000D01*
G37*
G36*
X127901000Y-75871000D02*
G01*
X126099000Y-75871000D01*
X126099000Y-74069000D01*
X127901000Y-74069000D01*
X127901000Y-75871000D01*
X127901000Y-75871000D01*
G37*
G36*
X132310442Y-74075518D02*
G01*
X132376627Y-74082037D01*
X132546466Y-74133557D01*
X132702991Y-74217222D01*
X132738729Y-74246552D01*
X132840186Y-74329814D01*
X132923448Y-74431271D01*
X132952778Y-74467009D01*
X133036443Y-74623534D01*
X133087963Y-74793373D01*
X133105359Y-74970000D01*
X133087963Y-75146627D01*
X133036443Y-75316466D01*
X132952778Y-75472991D01*
X132923448Y-75508729D01*
X132840186Y-75610186D01*
X132738729Y-75693448D01*
X132702991Y-75722778D01*
X132546466Y-75806443D01*
X132376627Y-75857963D01*
X132310443Y-75864481D01*
X132244260Y-75871000D01*
X132155740Y-75871000D01*
X132089557Y-75864481D01*
X132023373Y-75857963D01*
X131853534Y-75806443D01*
X131697009Y-75722778D01*
X131661271Y-75693448D01*
X131559814Y-75610186D01*
X131476552Y-75508729D01*
X131447222Y-75472991D01*
X131363557Y-75316466D01*
X131312037Y-75146627D01*
X131294641Y-74970000D01*
X131312037Y-74793373D01*
X131363557Y-74623534D01*
X131447222Y-74467009D01*
X131476552Y-74431271D01*
X131559814Y-74329814D01*
X131661271Y-74246552D01*
X131697009Y-74217222D01*
X131853534Y-74133557D01*
X132023373Y-74082037D01*
X132089558Y-74075518D01*
X132155740Y-74069000D01*
X132244260Y-74069000D01*
X132310442Y-74075518D01*
X132310442Y-74075518D01*
G37*
G36*
X134850442Y-74075518D02*
G01*
X134916627Y-74082037D01*
X135086466Y-74133557D01*
X135242991Y-74217222D01*
X135278729Y-74246552D01*
X135380186Y-74329814D01*
X135463448Y-74431271D01*
X135492778Y-74467009D01*
X135576443Y-74623534D01*
X135627963Y-74793373D01*
X135645359Y-74970000D01*
X135627963Y-75146627D01*
X135576443Y-75316466D01*
X135492778Y-75472991D01*
X135463448Y-75508729D01*
X135380186Y-75610186D01*
X135278729Y-75693448D01*
X135242991Y-75722778D01*
X135086466Y-75806443D01*
X134916627Y-75857963D01*
X134850443Y-75864481D01*
X134784260Y-75871000D01*
X134695740Y-75871000D01*
X134629557Y-75864481D01*
X134563373Y-75857963D01*
X134393534Y-75806443D01*
X134237009Y-75722778D01*
X134201271Y-75693448D01*
X134099814Y-75610186D01*
X134016552Y-75508729D01*
X133987222Y-75472991D01*
X133903557Y-75316466D01*
X133852037Y-75146627D01*
X133834641Y-74970000D01*
X133852037Y-74793373D01*
X133903557Y-74623534D01*
X133987222Y-74467009D01*
X134016552Y-74431271D01*
X134099814Y-74329814D01*
X134201271Y-74246552D01*
X134237009Y-74217222D01*
X134393534Y-74133557D01*
X134563373Y-74082037D01*
X134629558Y-74075518D01*
X134695740Y-74069000D01*
X134784260Y-74069000D01*
X134850442Y-74075518D01*
X134850442Y-74075518D01*
G37*
G36*
X132310443Y-71535519D02*
G01*
X132376627Y-71542037D01*
X132546466Y-71593557D01*
X132702991Y-71677222D01*
X132738729Y-71706552D01*
X132840186Y-71789814D01*
X132923448Y-71891271D01*
X132952778Y-71927009D01*
X133036443Y-72083534D01*
X133087963Y-72253373D01*
X133105359Y-72430000D01*
X133087963Y-72606627D01*
X133036443Y-72776466D01*
X132952778Y-72932991D01*
X132923448Y-72968729D01*
X132840186Y-73070186D01*
X132738729Y-73153448D01*
X132702991Y-73182778D01*
X132546466Y-73266443D01*
X132376627Y-73317963D01*
X132310443Y-73324481D01*
X132244260Y-73331000D01*
X132155740Y-73331000D01*
X132089557Y-73324481D01*
X132023373Y-73317963D01*
X131853534Y-73266443D01*
X131697009Y-73182778D01*
X131661271Y-73153448D01*
X131559814Y-73070186D01*
X131476552Y-72968729D01*
X131447222Y-72932991D01*
X131363557Y-72776466D01*
X131312037Y-72606627D01*
X131294641Y-72430000D01*
X131312037Y-72253373D01*
X131363557Y-72083534D01*
X131447222Y-71927009D01*
X131476552Y-71891271D01*
X131559814Y-71789814D01*
X131661271Y-71706552D01*
X131697009Y-71677222D01*
X131853534Y-71593557D01*
X132023373Y-71542037D01*
X132089557Y-71535519D01*
X132155740Y-71529000D01*
X132244260Y-71529000D01*
X132310443Y-71535519D01*
X132310443Y-71535519D01*
G37*
G36*
X127110443Y-71535519D02*
G01*
X127176627Y-71542037D01*
X127346466Y-71593557D01*
X127502991Y-71677222D01*
X127538729Y-71706552D01*
X127640186Y-71789814D01*
X127723448Y-71891271D01*
X127752778Y-71927009D01*
X127836443Y-72083534D01*
X127887963Y-72253373D01*
X127905359Y-72430000D01*
X127887963Y-72606627D01*
X127836443Y-72776466D01*
X127752778Y-72932991D01*
X127723448Y-72968729D01*
X127640186Y-73070186D01*
X127538729Y-73153448D01*
X127502991Y-73182778D01*
X127346466Y-73266443D01*
X127176627Y-73317963D01*
X127110443Y-73324481D01*
X127044260Y-73331000D01*
X126955740Y-73331000D01*
X126889557Y-73324481D01*
X126823373Y-73317963D01*
X126653534Y-73266443D01*
X126497009Y-73182778D01*
X126461271Y-73153448D01*
X126359814Y-73070186D01*
X126276552Y-72968729D01*
X126247222Y-72932991D01*
X126163557Y-72776466D01*
X126112037Y-72606627D01*
X126094641Y-72430000D01*
X126112037Y-72253373D01*
X126163557Y-72083534D01*
X126247222Y-71927009D01*
X126276552Y-71891271D01*
X126359814Y-71789814D01*
X126461271Y-71706552D01*
X126497009Y-71677222D01*
X126653534Y-71593557D01*
X126823373Y-71542037D01*
X126889557Y-71535519D01*
X126955740Y-71529000D01*
X127044260Y-71529000D01*
X127110443Y-71535519D01*
X127110443Y-71535519D01*
G37*
G36*
X134850443Y-71535519D02*
G01*
X134916627Y-71542037D01*
X135086466Y-71593557D01*
X135242991Y-71677222D01*
X135278729Y-71706552D01*
X135380186Y-71789814D01*
X135463448Y-71891271D01*
X135492778Y-71927009D01*
X135576443Y-72083534D01*
X135627963Y-72253373D01*
X135645359Y-72430000D01*
X135627963Y-72606627D01*
X135576443Y-72776466D01*
X135492778Y-72932991D01*
X135463448Y-72968729D01*
X135380186Y-73070186D01*
X135278729Y-73153448D01*
X135242991Y-73182778D01*
X135086466Y-73266443D01*
X134916627Y-73317963D01*
X134850443Y-73324481D01*
X134784260Y-73331000D01*
X134695740Y-73331000D01*
X134629557Y-73324481D01*
X134563373Y-73317963D01*
X134393534Y-73266443D01*
X134237009Y-73182778D01*
X134201271Y-73153448D01*
X134099814Y-73070186D01*
X134016552Y-72968729D01*
X133987222Y-72932991D01*
X133903557Y-72776466D01*
X133852037Y-72606627D01*
X133834641Y-72430000D01*
X133852037Y-72253373D01*
X133903557Y-72083534D01*
X133987222Y-71927009D01*
X134016552Y-71891271D01*
X134099814Y-71789814D01*
X134201271Y-71706552D01*
X134237009Y-71677222D01*
X134393534Y-71593557D01*
X134563373Y-71542037D01*
X134629557Y-71535519D01*
X134695740Y-71529000D01*
X134784260Y-71529000D01*
X134850443Y-71535519D01*
X134850443Y-71535519D01*
G37*
G36*
X159382552Y-68965377D02*
G01*
X159573821Y-69044603D01*
X159573823Y-69044604D01*
X159745961Y-69159623D01*
X159892353Y-69306015D01*
X160007373Y-69478155D01*
X160086599Y-69669424D01*
X160126988Y-69872472D01*
X160126988Y-70079504D01*
X160086599Y-70282552D01*
X160007373Y-70473821D01*
X160007372Y-70473823D01*
X159892353Y-70645961D01*
X159745961Y-70792353D01*
X159573823Y-70907372D01*
X159573822Y-70907373D01*
X159573821Y-70907373D01*
X159382552Y-70986599D01*
X159179504Y-71026988D01*
X158972472Y-71026988D01*
X158769424Y-70986599D01*
X158578155Y-70907373D01*
X158578154Y-70907373D01*
X158578153Y-70907372D01*
X158406015Y-70792353D01*
X158259623Y-70645961D01*
X158144604Y-70473823D01*
X158144603Y-70473821D01*
X158065377Y-70282552D01*
X158024988Y-70079504D01*
X158024988Y-69872472D01*
X158065377Y-69669424D01*
X158144603Y-69478155D01*
X158259623Y-69306015D01*
X158406015Y-69159623D01*
X158578153Y-69044604D01*
X158578155Y-69044603D01*
X158769424Y-68965377D01*
X158972472Y-68924988D01*
X159179504Y-68924988D01*
X159382552Y-68965377D01*
X159382552Y-68965377D01*
G37*
G36*
X135641000Y-70791000D02*
G01*
X133839000Y-70791000D01*
X133839000Y-68989000D01*
X135641000Y-68989000D01*
X135641000Y-70791000D01*
X135641000Y-70791000D01*
G37*
G36*
X132310442Y-68995518D02*
G01*
X132376627Y-69002037D01*
X132546466Y-69053557D01*
X132702991Y-69137222D01*
X132738729Y-69166552D01*
X132840186Y-69249814D01*
X132923448Y-69351271D01*
X132952778Y-69387009D01*
X133036443Y-69543534D01*
X133087963Y-69713373D01*
X133105359Y-69890000D01*
X133087963Y-70066627D01*
X133036443Y-70236466D01*
X132952778Y-70392991D01*
X132923448Y-70428729D01*
X132840186Y-70530186D01*
X132738729Y-70613448D01*
X132702991Y-70642778D01*
X132546466Y-70726443D01*
X132376627Y-70777963D01*
X132310442Y-70784482D01*
X132244260Y-70791000D01*
X132155740Y-70791000D01*
X132089558Y-70784482D01*
X132023373Y-70777963D01*
X131853534Y-70726443D01*
X131697009Y-70642778D01*
X131661271Y-70613448D01*
X131559814Y-70530186D01*
X131476552Y-70428729D01*
X131447222Y-70392991D01*
X131363557Y-70236466D01*
X131312037Y-70066627D01*
X131294641Y-69890000D01*
X131312037Y-69713373D01*
X131363557Y-69543534D01*
X131447222Y-69387009D01*
X131476552Y-69351271D01*
X131559814Y-69249814D01*
X131661271Y-69166552D01*
X131697009Y-69137222D01*
X131853534Y-69053557D01*
X132023373Y-69002037D01*
X132089558Y-68995518D01*
X132155740Y-68989000D01*
X132244260Y-68989000D01*
X132310442Y-68995518D01*
X132310442Y-68995518D01*
G37*
G36*
X127110442Y-68995518D02*
G01*
X127176627Y-69002037D01*
X127346466Y-69053557D01*
X127502991Y-69137222D01*
X127538729Y-69166552D01*
X127640186Y-69249814D01*
X127723448Y-69351271D01*
X127752778Y-69387009D01*
X127836443Y-69543534D01*
X127887963Y-69713373D01*
X127905359Y-69890000D01*
X127887963Y-70066627D01*
X127836443Y-70236466D01*
X127752778Y-70392991D01*
X127723448Y-70428729D01*
X127640186Y-70530186D01*
X127538729Y-70613448D01*
X127502991Y-70642778D01*
X127346466Y-70726443D01*
X127176627Y-70777963D01*
X127110442Y-70784482D01*
X127044260Y-70791000D01*
X126955740Y-70791000D01*
X126889558Y-70784482D01*
X126823373Y-70777963D01*
X126653534Y-70726443D01*
X126497009Y-70642778D01*
X126461271Y-70613448D01*
X126359814Y-70530186D01*
X126276552Y-70428729D01*
X126247222Y-70392991D01*
X126163557Y-70236466D01*
X126112037Y-70066627D01*
X126094641Y-69890000D01*
X126112037Y-69713373D01*
X126163557Y-69543534D01*
X126247222Y-69387009D01*
X126276552Y-69351271D01*
X126359814Y-69249814D01*
X126461271Y-69166552D01*
X126497009Y-69137222D01*
X126653534Y-69053557D01*
X126823373Y-69002037D01*
X126889558Y-68995518D01*
X126955740Y-68989000D01*
X127044260Y-68989000D01*
X127110442Y-68995518D01*
X127110442Y-68995518D01*
G37*
M02*
