G04 #@! TF.GenerationSoftware,KiCad,Pcbnew,(5.1.2-1)-1*
G04 #@! TF.CreationDate,2019-07-21T21:30:41+01:00*
G04 #@! TF.ProjectId,nfc_reader_module,6e66635f-7265-4616-9465-725f6d6f6475,rev?*
G04 #@! TF.SameCoordinates,Original*
G04 #@! TF.FileFunction,Legend,Top*
G04 #@! TF.FilePolarity,Positive*
%FSLAX46Y46*%
G04 Gerber Fmt 4.6, Leading zero omitted, Abs format (unit mm)*
G04 Created by KiCad (PCBNEW (5.1.2-1)-1) date 2019-07-21 21:30:41*
%MOMM*%
%LPD*%
G04 APERTURE LIST*
%ADD10C,0.120000*%
%ADD11C,0.150000*%
G04 APERTURE END LIST*
D10*
X143690000Y-87395279D02*
X143690000Y-87069721D01*
X142670000Y-87395279D02*
X142670000Y-87069721D01*
D11*
X147520000Y-85350000D02*
X145770000Y-85350000D01*
X147520000Y-90655000D02*
X153020000Y-90655000D01*
X147520000Y-85145000D02*
X153020000Y-85145000D01*
X147520000Y-90655000D02*
X147520000Y-90355000D01*
X153020000Y-90655000D02*
X153020000Y-90355000D01*
X153020000Y-85145000D02*
X153020000Y-85445000D01*
X147520000Y-85145000D02*
X147520000Y-85350000D01*
D10*
X155367500Y-76467221D02*
X155367500Y-76792779D01*
X156387500Y-76467221D02*
X156387500Y-76792779D01*
X166350000Y-74640000D02*
X166350000Y-77290000D01*
X166350000Y-77290000D02*
X157130000Y-77290000D01*
X157130000Y-77290000D02*
X157130000Y-74640000D01*
X157130000Y-70720000D02*
X157130000Y-68070000D01*
X157130000Y-68070000D02*
X166350000Y-68070000D01*
X166350000Y-68070000D02*
X166350000Y-70720000D01*
X166350000Y-74640000D02*
X166680000Y-74640000D01*
X149610000Y-74760000D02*
X149610000Y-73610000D01*
X142310000Y-74760000D02*
X149610000Y-74760000D01*
X142310000Y-69260000D02*
X149610000Y-69260000D01*
X146065279Y-75180000D02*
X145739721Y-75180000D01*
X146065279Y-76200000D02*
X145739721Y-76200000D01*
X157690000Y-92665279D02*
X157690000Y-92339721D01*
X156670000Y-92665279D02*
X156670000Y-92339721D01*
X140188578Y-111720000D02*
X139671422Y-111720000D01*
X140188578Y-113140000D02*
X139671422Y-113140000D01*
D11*
X143003333Y-85482380D02*
X142670000Y-85006190D01*
X142431904Y-85482380D02*
X142431904Y-84482380D01*
X142812857Y-84482380D01*
X142908095Y-84530000D01*
X142955714Y-84577619D01*
X143003333Y-84672857D01*
X143003333Y-84815714D01*
X142955714Y-84910952D01*
X142908095Y-84958571D01*
X142812857Y-85006190D01*
X142431904Y-85006190D01*
X143384285Y-84577619D02*
X143431904Y-84530000D01*
X143527142Y-84482380D01*
X143765238Y-84482380D01*
X143860476Y-84530000D01*
X143908095Y-84577619D01*
X143955714Y-84672857D01*
X143955714Y-84768095D01*
X143908095Y-84910952D01*
X143336666Y-85482380D01*
X143955714Y-85482380D01*
X149508095Y-83672380D02*
X149508095Y-84481904D01*
X149555714Y-84577142D01*
X149603333Y-84624761D01*
X149698571Y-84672380D01*
X149889047Y-84672380D01*
X149984285Y-84624761D01*
X150031904Y-84577142D01*
X150079523Y-84481904D01*
X150079523Y-83672380D01*
X151079523Y-84672380D02*
X150508095Y-84672380D01*
X150793809Y-84672380D02*
X150793809Y-83672380D01*
X150698571Y-83815238D01*
X150603333Y-83910476D01*
X150508095Y-83958095D01*
X155730833Y-74849880D02*
X155397500Y-74373690D01*
X155159404Y-74849880D02*
X155159404Y-73849880D01*
X155540357Y-73849880D01*
X155635595Y-73897500D01*
X155683214Y-73945119D01*
X155730833Y-74040357D01*
X155730833Y-74183214D01*
X155683214Y-74278452D01*
X155635595Y-74326071D01*
X155540357Y-74373690D01*
X155159404Y-74373690D01*
X156683214Y-74849880D02*
X156111785Y-74849880D01*
X156397500Y-74849880D02*
X156397500Y-73849880D01*
X156302261Y-73992738D01*
X156207023Y-74087976D01*
X156111785Y-74135595D01*
X161097142Y-78632380D02*
X160620952Y-78632380D01*
X160620952Y-77632380D01*
X161382857Y-78584761D02*
X161525714Y-78632380D01*
X161763809Y-78632380D01*
X161859047Y-78584761D01*
X161906666Y-78537142D01*
X161954285Y-78441904D01*
X161954285Y-78346666D01*
X161906666Y-78251428D01*
X161859047Y-78203809D01*
X161763809Y-78156190D01*
X161573333Y-78108571D01*
X161478095Y-78060952D01*
X161430476Y-78013333D01*
X161382857Y-77918095D01*
X161382857Y-77822857D01*
X161430476Y-77727619D01*
X161478095Y-77680000D01*
X161573333Y-77632380D01*
X161811428Y-77632380D01*
X161954285Y-77680000D01*
X162906666Y-78632380D02*
X162335238Y-78632380D01*
X162620952Y-78632380D02*
X162620952Y-77632380D01*
X162525714Y-77775238D01*
X162430476Y-77870476D01*
X162335238Y-77918095D01*
X145221904Y-72412380D02*
X145221904Y-71412380D01*
X145460000Y-71412380D01*
X145602857Y-71460000D01*
X145698095Y-71555238D01*
X145745714Y-71650476D01*
X145793333Y-71840952D01*
X145793333Y-71983809D01*
X145745714Y-72174285D01*
X145698095Y-72269523D01*
X145602857Y-72364761D01*
X145460000Y-72412380D01*
X145221904Y-72412380D01*
X146745714Y-72412380D02*
X146174285Y-72412380D01*
X146460000Y-72412380D02*
X146460000Y-71412380D01*
X146364761Y-71555238D01*
X146269523Y-71650476D01*
X146174285Y-71698095D01*
X142095714Y-70862380D02*
X141524285Y-70862380D01*
X141810000Y-70862380D02*
X141810000Y-69862380D01*
X141714761Y-70005238D01*
X141619523Y-70100476D01*
X141524285Y-70148095D01*
X145735833Y-77477142D02*
X145688214Y-77524761D01*
X145545357Y-77572380D01*
X145450119Y-77572380D01*
X145307261Y-77524761D01*
X145212023Y-77429523D01*
X145164404Y-77334285D01*
X145116785Y-77143809D01*
X145116785Y-77000952D01*
X145164404Y-76810476D01*
X145212023Y-76715238D01*
X145307261Y-76620000D01*
X145450119Y-76572380D01*
X145545357Y-76572380D01*
X145688214Y-76620000D01*
X145735833Y-76667619D01*
X146069166Y-76572380D02*
X146688214Y-76572380D01*
X146354880Y-76953333D01*
X146497738Y-76953333D01*
X146592976Y-77000952D01*
X146640595Y-77048571D01*
X146688214Y-77143809D01*
X146688214Y-77381904D01*
X146640595Y-77477142D01*
X146592976Y-77524761D01*
X146497738Y-77572380D01*
X146212023Y-77572380D01*
X146116785Y-77524761D01*
X146069166Y-77477142D01*
X157013333Y-90587142D02*
X156965714Y-90634761D01*
X156822857Y-90682380D01*
X156727619Y-90682380D01*
X156584761Y-90634761D01*
X156489523Y-90539523D01*
X156441904Y-90444285D01*
X156394285Y-90253809D01*
X156394285Y-90110952D01*
X156441904Y-89920476D01*
X156489523Y-89825238D01*
X156584761Y-89730000D01*
X156727619Y-89682380D01*
X156822857Y-89682380D01*
X156965714Y-89730000D01*
X157013333Y-89777619D01*
X157394285Y-89777619D02*
X157441904Y-89730000D01*
X157537142Y-89682380D01*
X157775238Y-89682380D01*
X157870476Y-89730000D01*
X157918095Y-89777619D01*
X157965714Y-89872857D01*
X157965714Y-89968095D01*
X157918095Y-90110952D01*
X157346666Y-90682380D01*
X157965714Y-90682380D01*
X139753333Y-114527142D02*
X139705714Y-114574761D01*
X139562857Y-114622380D01*
X139467619Y-114622380D01*
X139324761Y-114574761D01*
X139229523Y-114479523D01*
X139181904Y-114384285D01*
X139134285Y-114193809D01*
X139134285Y-114050952D01*
X139181904Y-113860476D01*
X139229523Y-113765238D01*
X139324761Y-113670000D01*
X139467619Y-113622380D01*
X139562857Y-113622380D01*
X139705714Y-113670000D01*
X139753333Y-113717619D01*
X140705714Y-114622380D02*
X140134285Y-114622380D01*
X140420000Y-114622380D02*
X140420000Y-113622380D01*
X140324761Y-113765238D01*
X140229523Y-113860476D01*
X140134285Y-113908095D01*
M02*
